<svg width="48" height="40" viewBox="0 0 48 40" fill="none" xmlns="http://www.w3.org/2000/svg">
<path d="M14.5604 35.4326C15.0365 35.4705 15.4996 35.5861 15.9676 35.6713C16.6946 35.8035 17.4293 35.8852 18.1559 36.0122C18.9989 36.1596 19.8518 36.18 20.6965 36.2931C21.182 36.3579 21.6753 36.3709 22.166 36.3866C23.1211 36.417 24.0763 36.4509 25.0318 36.4496C25.7627 36.4487 26.4944 36.4152 27.224 36.3509C27.847 36.2961 28.4726 36.2679 29.0957 36.2113C29.5765 36.1679 30.0551 36.1022 30.5342 36.0392C31.0476 35.9718 31.5598 35.8957 32.0724 35.8235C32.0776 35.8361 32.0827 35.8487 32.0883 35.8613C32.087 35.89 32.0754 35.9135 32.0535 35.9318C31.6384 36.0357 31.2139 36.0822 30.7916 36.1396C30.2699 36.2109 29.7466 36.2696 29.2228 36.3257C28.6638 36.3857 28.1031 36.4244 27.5441 36.4835C27.2962 36.5096 27.0461 36.5118 26.7978 36.5261C25.5505 36.5992 24.3005 36.5966 23.0519 36.5705C22.4977 36.5592 21.9438 36.4935 21.3878 36.4896C21.2795 36.4887 21.1786 36.4444 21.0712 36.4387C20.9032 36.3783 20.727 36.4161 20.5556 36.3987C20.5315 36.3974 20.5079 36.3931 20.4847 36.3874C20.3493 36.3387 20.208 36.3683 20.0696 36.3566C20.0348 36.3548 20.0004 36.3496 19.9669 36.3413C19.8565 36.3009 19.7409 36.3213 19.6275 36.3122C19.5922 36.3105 19.5574 36.3048 19.5231 36.2957C19.2988 36.2748 19.0766 36.2365 18.8511 36.23C18.5065 36.1779 18.1546 36.1779 17.8147 36.0905C17.7408 36.0644 17.6643 36.0518 17.5865 36.0465C17.5651 36.0444 17.544 36.0396 17.5234 36.0339C17.4533 36.0079 17.3799 36.0083 17.3068 36.0044C17.2746 36.0022 17.2428 35.9965 17.2119 35.9887C17.138 35.9626 17.0611 35.9687 16.985 35.9679C16.7092 35.9331 16.4312 35.9135 16.1631 35.8318C16.093 35.7944 16.0144 35.7913 15.9396 35.7739C15.8567 35.7439 15.7673 35.7522 15.6831 35.7305C15.6105 35.7052 15.5332 35.7052 15.4593 35.6861C15.3115 35.6509 15.1624 35.6226 15.012 35.6039C14.9428 35.58 14.8698 35.5748 14.7989 35.5583C14.7327 35.5348 14.6614 35.5313 14.5956 35.5057C14.578 35.4952 14.5647 35.4809 14.5557 35.4622C14.5561 35.4526 14.5582 35.4426 14.5604 35.4326Z" fill="#F7A41B"/>
<path d="M31.5164 39.1248C31.2637 39.2752 30.9724 39.2844 30.6974 39.3296C29.8149 39.4753 28.9349 39.6374 28.0442 39.7357C27.3791 39.8092 26.7122 39.8505 26.0471 39.9122C24.9845 40.0105 23.9198 40.0179 22.8585 39.9757C21.9519 39.9396 21.0432 39.894 20.1383 39.7848C19.419 39.6979 18.6993 39.6166 17.9827 39.5079C17.9569 39.504 17.9337 39.4831 17.9092 39.47C17.9689 39.4053 18.0488 39.4153 18.1244 39.4113C18.5103 39.4418 18.8897 39.5279 19.2772 39.5474C19.3035 39.5496 19.3288 39.5548 19.3542 39.5622C19.8264 39.6348 20.3029 39.667 20.7776 39.7118C22.165 39.8435 23.5563 39.8753 24.948 39.8379C25.7304 39.817 26.5142 39.7766 27.2919 39.6735C27.3971 39.6679 27.5033 39.6835 27.6077 39.6609C27.6287 39.6531 27.6502 39.6479 27.6721 39.644C27.7881 39.6222 27.9089 39.6474 28.024 39.61C28.0446 39.6035 28.0661 39.5992 28.0876 39.5961C28.1946 39.5809 28.305 39.6027 28.4099 39.5657C28.4318 39.5583 28.4537 39.5531 28.4765 39.5492C28.965 39.4892 29.4505 39.4087 29.9378 39.3409C30.0125 39.3244 30.0911 39.3322 30.1646 39.3074C30.1943 39.2992 30.2248 39.2939 30.2553 39.2913C30.3313 39.2874 30.4091 39.2896 30.474 39.237C30.492 39.2292 30.5109 39.2239 30.5303 39.2218C30.6183 39.23 30.7043 39.2066 30.7915 39.2009C30.9019 39.1992 31.0055 39.1661 31.1095 39.1331C31.1481 39.117 31.1868 39.1005 31.2268 39.0874C31.259 39.0774 31.2916 39.0718 31.3247 39.07C31.3943 39.07 31.4648 39.0644 31.5164 39.1248Z" fill="#F7A41B"/>
<path d="M32.629 35.7352C32.9027 35.5996 33.2082 35.6004 33.4983 35.5474C34.0306 35.45 34.5492 35.2991 35.0786 35.1939C35.6857 35.0731 36.2787 34.8987 36.8759 34.7391C37.755 34.5044 38.6178 34.2161 39.4827 33.9357C40.0503 33.7518 40.6024 33.5187 41.1614 33.307C41.2615 33.2691 41.3582 33.2222 41.4673 33.2161C41.4966 33.1935 41.5275 33.1939 41.5589 33.2109C41.5112 33.3848 41.329 33.3383 41.225 33.4196C41.1447 33.4457 41.0673 33.4796 40.9904 33.5152C40.715 33.6096 40.437 33.6961 40.1758 33.8287C39.3443 34.1318 38.5022 34.4013 37.6553 34.6557C36.4402 35.0204 35.2075 35.3148 33.9722 35.5978C33.8815 35.6187 33.787 35.6139 33.6989 35.6465C33.4033 35.7044 33.1068 35.7557 32.8117 35.8152C32.7519 35.8287 32.6935 35.8317 32.6385 35.7978C32.6179 35.7804 32.6144 35.7591 32.629 35.7352Z" fill="#F7A41B"/>
<path d="M44.0908 37.5174C44.2167 37.0674 44.4191 36.647 44.5824 36.2113C44.887 35.3996 45.1852 34.5865 45.3915 33.74C45.4886 33.3418 45.5745 32.9444 45.623 32.5378C45.6712 32.1335 45.6196 31.7626 45.2857 31.4835C45.3137 31.4531 45.3489 31.447 45.3876 31.4526C45.6879 31.597 45.7571 31.8748 45.7743 32.1705C45.8005 32.6131 45.7103 33.0444 45.6144 33.4726C45.5629 33.7039 45.5113 33.9361 45.4284 34.1587C45.3493 34.3413 45.2883 34.5305 45.2436 34.7248C45.2123 34.8157 45.1852 34.9078 45.153 34.9987C45.1096 35.0831 45.0864 35.1744 45.0636 35.2657C44.9914 35.4061 44.9639 35.56 44.9368 35.7135C44.9033 35.7818 44.8346 35.8309 44.8299 35.9148C44.8264 35.9435 44.8213 35.9722 44.8135 36.0005C44.8079 36.0192 44.8002 36.0365 44.7908 36.0535C44.7272 36.1278 44.7023 36.2174 44.6932 36.3131C44.6885 36.3426 44.6795 36.3705 44.6653 36.3965C44.6 36.4752 44.5746 36.5696 44.5647 36.6696C44.4479 36.9587 44.3619 37.2618 44.1819 37.5222C44.151 37.5396 44.12 37.5431 44.0908 37.5174Z" fill="#F7A41B"/>
<path d="M44.9853 31.353C44.1118 31.1487 43.2297 31.1435 42.3399 31.2061C41.994 31.2304 41.646 31.2504 41.2988 31.2639C41.09 31.2956 40.879 31.3078 40.6693 31.3243C40.2822 31.3552 39.8964 31.3917 39.5127 31.4526C39.407 31.4695 39.2983 31.4682 39.193 31.4548C39.0095 31.4313 38.9141 31.2869 38.9369 31.0887C38.9464 31.0296 38.9176 30.9617 38.9769 30.9143C39.0246 30.8861 39.0353 30.7856 39.1238 30.837C39.1393 30.8674 39.1401 30.8987 39.1307 30.9309C38.9464 31.2239 39.1728 31.3413 39.4147 31.3209C39.5891 31.3061 39.7649 31.2887 39.9376 31.2491C40.308 31.223 40.6762 31.1848 41.0436 31.1339C41.2915 31.0996 41.5416 31.1043 41.7903 31.0848C42.7227 31.0117 43.6577 30.973 44.5875 31.123C44.7774 31.1539 44.9901 31.1539 45.1276 31.3348C45.0863 31.3956 45.0356 31.373 44.9853 31.353Z" fill="#F7A41B"/>
<path d="M18.1259 39.4691C18.0537 39.4696 17.982 39.47 17.9098 39.4704C17.4603 39.4422 17.0229 39.3374 16.5851 39.2422C15.9664 39.1078 15.3468 38.9739 14.7345 38.8126C14.0694 38.6374 13.3957 38.4865 12.7598 38.2109C12.7946 38.1704 12.8414 38.1604 12.8908 38.157C13.2492 38.2183 13.5895 38.3509 13.9392 38.4461C14.7092 38.6557 15.4766 38.8735 16.2616 39.0217C16.3325 39.0352 16.3999 39.0565 16.4669 39.0804C16.952 39.2139 17.45 39.2787 17.9433 39.3678C18.0142 39.3804 18.1079 39.3565 18.1259 39.4691Z" fill="#F7A41B"/>
<path d="M5.80578 32.6965C6.06015 32.7457 6.28658 32.8709 6.5186 32.9765C6.92722 33.1626 7.35302 33.3005 7.77323 33.4526C8.39969 33.6796 9.03517 33.8826 9.65905 34.1161C9.8597 34.1913 10.0771 34.2035 10.2675 34.3057C10.2937 34.3365 10.2915 34.3683 10.2696 34.4C10.151 34.4557 10.0453 34.3822 9.93876 34.3561C9.59245 34.27 9.25301 34.16 8.9256 34.0148C8.85041 33.9548 8.76319 33.9274 8.66823 33.9239C8.57242 33.9144 8.48219 33.8879 8.40141 33.8339C8.28969 33.757 8.16337 33.7231 8.03146 33.7052C8.0001 33.7013 7.96959 33.6935 7.93951 33.6831C7.59449 33.5179 7.23271 33.3965 6.8778 33.2565C6.72871 33.2035 6.58864 33.1265 6.43095 33.0983C6.2058 33.0452 6.02276 32.8952 5.80707 32.8187C5.75637 32.8009 5.70223 32.7661 5.71211 32.6922C5.74477 32.6744 5.77613 32.6718 5.80578 32.6965Z" fill="#F7A41B"/>
<path d="M42.5875 29.3978C42.9953 29.2935 43.4138 29.243 43.8297 29.2352C44.4832 29.223 45.1393 29.1809 45.7915 29.27C46.3518 29.3465 46.9151 29.4109 47.4368 29.657C47.4514 29.6796 47.4484 29.6996 47.4282 29.717C47.3745 29.7478 47.319 29.74 47.2649 29.7204C47.0067 29.6278 46.7381 29.5748 46.4713 29.5157C45.5707 29.3196 44.6568 29.3617 43.7472 29.3804C43.4309 29.387 43.1113 29.4396 42.7946 29.4835C42.7302 29.4926 42.667 29.4983 42.6068 29.4657C42.5811 29.4487 42.5746 29.4261 42.5875 29.3978Z" fill="#F7A41B"/>
<path d="M31.5161 39.1248C31.4422 39.1235 31.3678 39.1217 31.2939 39.1204C31.3017 39.0174 31.3855 39.0052 31.4581 38.9822C31.5999 38.9365 31.7503 38.9326 31.8942 38.8961C32.1881 38.8804 32.4695 38.7961 32.7497 38.7161C33.2562 38.5713 33.7766 38.477 34.2715 38.2904C34.3687 38.2691 34.4658 38.2461 34.5607 38.2157C34.834 38.1417 35.1047 38.0587 35.3685 37.953C35.4854 37.9087 35.5997 37.8548 35.7286 37.8552C35.7767 37.8583 35.8222 37.8683 35.8536 37.91C35.3569 38.1257 34.8357 38.2665 34.3192 38.4217C33.8028 38.5765 33.2863 38.7344 32.7626 38.8596C32.3501 38.9578 31.941 39.0809 31.5161 39.1248Z" fill="#F7A41B"/>
<path d="M8.63799 36.5991C8.45968 36.5883 8.32305 36.4709 8.17094 36.3991C7.75889 36.2057 7.34856 36.0044 6.95498 35.7757C6.55539 35.5435 6.14334 35.3322 5.75921 35.0713C5.52333 34.9113 5.26338 34.7883 5.01331 34.6505C4.92609 34.6026 4.83414 34.5635 4.77441 34.4774C4.835 34.4265 4.89601 34.4609 4.95702 34.4757C5.33384 34.6505 5.67801 34.8844 6.03764 35.09C6.32895 35.2752 6.65207 35.4044 6.93092 35.6113C7.03361 35.7004 7.15134 35.7657 7.27423 35.8213C7.29184 35.8278 7.3086 35.8357 7.32536 35.8444C7.39711 35.8844 7.47187 35.9183 7.54492 35.9552C7.56082 35.9631 7.57628 35.9726 7.59089 35.9826C7.6403 36.0226 7.69917 36.0378 7.75975 36.05C7.85858 36.0761 7.94924 36.1191 8.03302 36.1783C8.08372 36.217 8.13829 36.2491 8.1993 36.2687C8.21692 36.2761 8.23325 36.2852 8.24914 36.2952C8.37074 36.4026 8.56581 36.3883 8.65733 36.5457C8.65862 36.5665 8.65217 36.5839 8.63799 36.5991Z" fill="#F7A41B"/>
<path d="M1.04107 30.3522C1.39082 30.48 1.6989 30.6909 2.02759 30.8613C2.55823 31.137 3.10091 31.3904 3.62467 31.6765C3.98731 31.8748 4.3869 31.9896 4.73193 32.2191C4.70959 32.2465 4.67994 32.2587 4.64642 32.2639C4.36284 32.2296 4.12738 32.0691 3.87818 31.9509C3.02571 31.5465 2.18571 31.117 1.36161 30.6561C1.34528 30.6452 1.33024 30.6322 1.31649 30.6183C1.27395 30.5657 1.21724 30.5378 1.15193 30.5257C1.11369 30.5152 1.07974 30.4974 1.05568 30.4639C1.03549 30.4296 1.01615 30.3939 1.04107 30.3522Z" fill="#F7A41B"/>
<path d="M42.5876 29.3978C42.5876 29.4126 42.5876 29.427 42.5876 29.4418C42.5511 29.5318 42.469 29.5291 42.3929 29.5413C42.1214 29.5857 41.8554 29.6522 41.5963 29.7465C41.5392 29.7831 41.4756 29.7965 41.409 29.7991C41.3046 29.7909 41.2127 29.8187 41.1362 29.8939C41.1095 29.9091 41.0807 29.9178 41.0511 29.9226C40.9536 29.93 40.8569 29.9405 40.777 30.0065C40.7606 30.0191 40.743 30.0291 40.7246 30.0374C40.3804 30.1165 40.0779 30.2905 39.775 30.4631C39.6156 30.5422 39.4747 30.6513 39.3256 30.7465C39.262 30.7874 39.2053 30.8509 39.1172 30.8335C39.0708 30.8605 39.0239 30.8874 38.9775 30.9144C38.9977 30.8048 39.0802 30.7374 39.1606 30.6839C39.6994 30.3252 40.2674 30.0296 40.881 29.8144C41.2638 29.68 41.6526 29.5774 42.0432 29.477C42.2215 29.4313 42.4033 29.4031 42.5876 29.3978Z" fill="#F7A41B"/>
<path d="M44.091 37.5174C44.1181 37.5174 44.1451 37.5174 44.1722 37.517C44.1778 37.5248 44.1834 37.5331 44.189 37.5409C44.1907 37.56 44.189 37.5791 44.1834 37.5974C44.1481 37.677 44.1374 37.7544 44.207 37.8231C44.2268 37.8431 44.247 37.8631 44.2676 37.8818C44.4158 37.9896 44.5477 37.9087 44.6612 37.8265C44.8403 37.6961 45.0152 37.5565 45.1506 37.3752C45.1725 37.3435 45.1957 37.3126 45.2215 37.2831C45.2601 37.2413 45.3009 37.2013 45.3388 37.1587C45.3512 37.1439 45.365 37.13 45.3791 37.1165C45.5471 36.9765 45.6971 36.8196 45.8178 36.6361C45.9738 36.4257 46.1195 36.2074 46.2737 35.9957C46.318 35.9478 46.345 35.8892 46.3708 35.83C46.3786 35.8126 46.3871 35.7957 46.3966 35.7791C46.48 35.6978 46.4727 35.5309 46.6333 35.5222C46.6432 35.5522 46.6445 35.5809 46.6205 35.6057C46.4215 36.0731 46.1182 36.4735 45.8071 36.8652C45.5416 37.2 45.2477 37.5126 44.9181 37.787C44.7871 37.8961 44.6663 38.0231 44.4803 38.0365C44.1052 38.0635 43.9746 37.8904 44.091 37.5174Z" fill="#F7A41B"/>
<path d="M41.5593 33.2191C41.5288 33.2183 41.4983 33.2174 41.4678 33.2165C41.8785 32.9831 42.3185 32.8144 42.7748 32.7144C43.0748 32.6487 43.3962 32.69 43.6204 32.9509C43.8877 33.2618 43.7614 33.9026 43.403 34.1248C43.3304 34.1696 43.2578 34.2139 43.1848 34.2587C43.1585 34.2835 43.1306 34.2874 43.0997 34.2678C43.0756 34.1418 43.1813 34.1144 43.2522 34.0605C43.3678 34.0018 43.4499 33.9087 43.5143 33.7978C43.7536 33.3818 43.6759 33.0817 43.272 32.8687C43.183 32.8261 43.0911 32.8304 42.9983 32.8522C42.9703 32.8591 42.9416 32.8617 42.9132 32.8596C42.8943 32.8578 42.8758 32.8539 42.8578 32.8496C42.7856 32.8291 42.7143 32.8287 42.6438 32.8578C42.6094 32.8726 42.5776 32.8922 42.5458 32.9122C42.4608 32.9622 42.3671 32.9931 42.2781 33.0344C42.2098 33.0552 42.1394 33.0691 42.071 33.09C41.8927 33.0991 41.7505 33.2596 41.5593 33.2191Z" fill="#F7A41B"/>
<path d="M4.59824 34.3496C4.20252 34.1522 3.85405 33.8809 3.49528 33.6261C3.12577 33.3635 2.76484 33.0878 2.40134 32.817C2.37385 32.7965 2.35279 32.767 2.32873 32.7413C2.31584 32.7004 2.3399 32.6848 2.37342 32.6756C2.53497 32.7222 2.65356 32.8404 2.78461 32.9352C3.3333 33.3322 3.86737 33.7504 4.44743 34.1017C4.51961 34.1948 4.70394 34.1796 4.68804 34.3574C4.65624 34.3743 4.6266 34.3704 4.59824 34.3496Z" fill="#F7A41B"/>
<path d="M47.4326 29.7109C47.4339 29.693 47.4356 29.6752 47.4369 29.6574C47.7634 29.7157 47.9684 29.9639 47.9886 30.3722C48.0174 30.9487 47.9967 31.5243 47.8936 32.0939C47.8915 32.1052 47.8747 32.1139 47.8648 32.1239C47.7836 32.0396 47.8159 31.9317 47.8064 31.8326C47.8416 31.4661 47.8532 31.0991 47.8524 30.7309C47.8511 30.343 47.8214 29.9752 47.4438 29.7513C47.4343 29.7452 47.4343 29.7252 47.4326 29.7109Z" fill="#F7A41B"/>
<path d="M35.8541 37.91C35.809 37.9091 35.7639 37.9078 35.7188 37.907C35.7892 37.7357 35.9907 37.7739 36.0994 37.6635C36.1287 37.6504 36.1596 37.6422 36.191 37.637C36.38 37.6165 36.5454 37.52 36.7246 37.4678C36.7955 37.4565 36.8595 37.4257 36.9223 37.3918C37.1242 37.3096 37.3223 37.2183 37.5234 37.1335C37.7069 37.0596 37.8959 36.9991 38.0759 36.9161C38.14 36.8865 38.2053 36.8544 38.2779 36.8935C38.2968 36.9091 38.3024 36.9283 38.2947 36.9518C37.5032 37.3283 36.6821 37.6283 35.8541 37.91Z" fill="#F7A41B"/>
<path d="M47.8636 31.8235C47.864 31.9235 47.8644 32.0235 47.8648 32.1235C47.8133 32.5183 47.7347 32.907 47.6105 33.2857C47.4932 33.6435 47.403 34.0113 47.2216 34.3452C47.183 34.3117 47.1752 34.267 47.1748 34.2191C47.1791 34.1378 47.2083 34.0626 47.2302 33.9852C47.4128 33.5061 47.5422 33.0113 47.6565 32.5117C47.7145 32.3413 47.7239 32.1613 47.7639 31.9874C47.7789 31.9222 47.7643 31.8374 47.8636 31.8235Z" fill="#F7A41B"/>
<path d="M43.2749 34.0896C43.213 34.1448 43.1516 34.2 43.0897 34.2557C43.0717 34.3435 42.9935 34.3826 42.932 34.4196C42.5977 34.6204 42.2798 34.8487 41.9356 35.033C41.9249 35.0374 41.9141 35.0417 41.9038 35.0465C41.8527 35.0887 41.8016 35.1313 41.7294 35.1274C41.6959 35.1256 41.6654 35.1161 41.64 35.0935C41.6233 34.9987 41.7006 34.9678 41.7573 34.9352C42.2458 34.6556 42.7052 34.3317 43.1546 33.993C43.2117 33.95 43.2732 33.9104 43.3509 33.9422C43.4029 34.0322 43.308 34.0444 43.2749 34.0896Z" fill="#F7A41B"/>
<path d="M12.8895 38.2091C12.8461 38.2095 12.8027 38.21 12.7593 38.2104C12.095 38.0152 11.4454 37.7761 10.8009 37.5235C10.7411 37.5 10.6797 37.4796 10.6195 37.4578C10.5856 37.4318 10.589 37.4035 10.6144 37.3735C10.7798 37.327 10.9048 37.4591 11.0569 37.4735C11.5923 37.6896 12.1389 37.8743 12.6875 38.0517C12.7705 38.0791 12.8757 38.0869 12.8895 38.2091Z" fill="#F7A41B"/>
<path d="M10.6125 37.3861C10.615 37.4104 10.6172 37.4343 10.6198 37.4587C9.9542 37.1835 9.259 36.9787 8.6377 36.5996C8.6377 36.5852 8.63813 36.5713 8.63855 36.557C8.78808 36.4961 8.88948 36.6457 9.02526 36.6461C9.04588 36.6517 9.06607 36.6591 9.08541 36.6683C9.48371 36.8635 9.89104 37.0387 10.3022 37.2043C10.4135 37.2496 10.5347 37.2804 10.6125 37.3861Z" fill="#F7A41B"/>
<path d="M0.396447 31.1357C0.112866 30.997 -0.0529863 30.6661 0.015331 30.3739C0.0535715 30.2104 0.385705 30.0296 0.56058 30.1057C0.692059 30.163 0.845451 30.1917 0.946853 30.3113C0.92365 30.3378 0.893144 30.3474 0.85963 30.3496C0.745768 30.3487 0.649092 30.2791 0.532222 30.2757C0.179464 30.2652 0.0797813 30.4052 0.206104 30.7513C0.246063 30.8813 0.389572 30.9426 0.419649 31.0796C0.41836 31.1013 0.411056 31.12 0.396447 31.1357Z" fill="#F7A41B"/>
<path d="M2.36665 32.6978C2.35376 32.7122 2.34087 32.7269 2.32755 32.7413C2.08392 32.62 1.90003 32.4169 1.6839 32.2578C1.43985 32.0778 1.18549 31.907 0.992995 31.6643C0.979675 31.6456 0.979245 31.6261 0.989987 31.6061C1.0901 31.5517 1.14639 31.6296 1.20525 31.6843C1.26712 31.7422 1.33673 31.7883 1.40204 31.8413C1.71398 32.1256 2.06931 32.3561 2.37911 32.6439C2.3877 32.6648 2.3834 32.683 2.36665 32.6978Z" fill="#F7A41B"/>
<path d="M41.7361 35.0883C41.792 35.0744 41.8483 35.0605 41.9041 35.0465C41.8422 35.2383 41.645 35.2574 41.5084 35.3374C41.1432 35.55 40.8029 35.8113 40.3977 35.9505C40.3844 35.9331 40.3779 35.9135 40.3779 35.8918C40.4823 35.7226 40.6714 35.68 40.8269 35.5905C41.1273 35.4183 41.4121 35.2165 41.7361 35.0883Z" fill="#F7A41B"/>
<path d="M11.3844 34.6491C11.9331 34.7804 12.4865 34.8935 13.0197 35.083C12.997 35.1143 12.9643 35.1274 12.9282 35.1352C12.8577 35.1448 12.7877 35.143 12.7172 35.133C12.4861 35.0809 12.2601 35.0074 12.0293 34.9522C11.8682 34.9017 11.7015 34.873 11.5425 34.8156C11.4789 34.7926 11.4003 34.7909 11.3668 34.7135C11.3621 34.6891 11.3681 34.6678 11.3844 34.6491Z" fill="#F7A41B"/>
<path d="M38.9376 31.0887C38.9578 31.3218 39.0742 31.4461 39.3071 31.4344C39.6255 31.4178 39.943 31.3805 40.2601 31.3435C40.6055 31.3035 40.9506 31.2565 41.2995 31.2639C41.1658 31.357 41.0099 31.3048 40.8663 31.3222C40.3189 31.3883 39.7694 31.44 39.2194 31.4757C38.9706 31.4918 38.8624 31.3205 38.9376 31.0887Z" fill="#F7A41B"/>
<path d="M41.9355 35.033C42.1426 34.8239 42.4078 34.6991 42.6509 34.5452C42.7992 34.4513 42.9298 34.3296 43.0901 34.2556C43.1219 34.257 43.1537 34.2578 43.185 34.2591C42.9521 34.5078 42.6458 34.6487 42.3622 34.8204C42.2282 34.9017 42.1263 35.0644 41.9355 35.033Z" fill="#F7A41B"/>
<path d="M47.2215 34.2157C47.2215 34.2592 47.2215 34.3022 47.2219 34.3457C47.0797 34.7939 46.8885 35.2183 46.6212 35.6057C46.6212 35.577 46.6212 35.5478 46.6212 35.5192C46.58 35.4718 46.6006 35.4248 46.6247 35.38C46.8064 35.0448 46.9628 34.6983 47.1012 34.3426C47.1218 34.2883 47.1313 34.2083 47.2215 34.2157Z" fill="#F7A41B"/>
<path d="M38.2946 36.9518C38.2937 36.9365 38.2929 36.9209 38.292 36.9057C38.2976 36.8978 38.3032 36.89 38.3087 36.8822C38.3521 36.8448 38.4059 36.8235 38.4518 36.7896C38.4836 36.7678 38.5176 36.7496 38.5545 36.7387C38.6301 36.7231 38.701 36.6952 38.7629 36.647C38.9408 36.54 39.1225 36.4418 39.3241 36.3861C39.3958 36.3792 39.4676 36.3331 39.5389 36.387C39.2768 36.5696 38.9868 36.7009 38.6916 36.8118C38.5614 36.8609 38.4458 36.9639 38.2946 36.9518Z" fill="#F7A41B"/>
<path d="M13.1884 35.1244C13.6538 35.1909 14.1126 35.2878 14.5608 35.4326L14.5565 35.4361C14.4684 35.5135 14.3713 35.4843 14.2751 35.4596C14.1865 35.4365 14.1006 35.3991 14.0061 35.4052C13.7302 35.35 13.4436 35.3378 13.191 35.1913C13.1755 35.1696 13.1747 35.1474 13.1884 35.1244Z" fill="#F7A41B"/>
<path d="M39.5384 36.3874C39.468 36.4022 39.3975 36.417 39.327 36.4318C39.3159 36.3218 39.4143 36.3152 39.4744 36.2774C39.5891 36.2052 39.7215 36.1678 39.8362 36.0957C39.9578 36.0404 40.0794 35.9852 40.1975 35.9231C40.2607 35.89 40.3209 35.8505 40.3935 35.8974C40.3948 35.9152 40.396 35.9326 40.3973 35.9504C40.1262 36.127 39.8285 36.2496 39.5384 36.3874Z" fill="#F7A41B"/>
<path d="M4.63965 32.223C4.67015 32.2217 4.70066 32.2209 4.73117 32.2196C5.09681 32.3617 5.45559 32.5191 5.80576 32.6965C5.7744 32.6978 5.74303 32.6996 5.71167 32.7009C5.64335 32.7587 5.57503 32.7265 5.5123 32.6944C5.31551 32.5918 5.10498 32.5222 4.90303 32.4331C4.81624 32.3622 4.67101 32.3657 4.63965 32.223Z" fill="#F7A41B"/>
<path d="M1.00017 31.6044C0.99802 31.6244 0.995442 31.6444 0.993294 31.6644C0.766859 31.5196 0.562766 31.3496 0.396484 31.1357C0.397344 31.1183 0.398203 31.1013 0.399062 31.0839C0.669324 31.1744 0.871698 31.3457 1.00017 31.6044Z" fill="#F7A41B"/>
<path d="M10.4833 34.39C10.604 34.3944 10.7205 34.4165 10.8262 34.48C10.8494 34.5148 10.965 34.4866 10.8958 34.5844C10.6779 34.5831 10.4691 34.5505 10.293 34.4052C10.3458 34.2631 10.4201 34.3961 10.4833 34.39Z" fill="#F7A41B"/>
<path d="M32.6295 35.7352C32.6295 35.75 32.63 35.7644 32.63 35.7791C32.6167 35.7961 32.5999 35.8083 32.5801 35.8165C32.5092 35.8365 32.434 35.8344 32.3644 35.8613C32.3434 35.8678 32.3219 35.8718 32.3 35.8744C32.2205 35.88 32.141 35.8848 32.0753 35.8261L32.0723 35.8231C32.2484 35.7335 32.4396 35.7383 32.6295 35.7352Z" fill="#F7A41B"/>
<path d="M4.59766 34.3496C4.62988 34.3478 4.66211 34.3465 4.69433 34.3448C4.75105 34.2965 4.80089 34.3361 4.85245 34.3565C4.86964 34.3657 4.8851 34.3774 4.89971 34.39C4.93323 34.4261 4.96846 34.4613 4.95299 34.5183C4.89327 34.5048 4.83354 34.4909 4.77382 34.4774C4.70851 34.4444 4.63676 34.42 4.59766 34.3496Z" fill="#F7A41B"/>
<path d="M10.9101 34.5744C10.8826 34.5431 10.8546 34.5113 10.8271 34.48C10.9634 34.5009 11.103 34.5109 11.2156 34.607C11.1821 34.6483 11.1352 34.6574 11.0862 34.6613C11.0171 34.6539 10.9359 34.6713 10.9101 34.5744Z" fill="#F7A41B"/>
<path d="M44.9854 31.353C45.0322 31.3513 45.079 31.3496 45.1258 31.3478C45.2371 31.2761 45.3046 31.3591 45.378 31.4209C45.3913 31.4409 45.3909 31.4613 45.3772 31.4809C45.3467 31.4817 45.3162 31.4826 45.2857 31.4839C45.1856 31.44 45.0855 31.3965 44.9854 31.353Z" fill="#F7A41B"/>
<path d="M13.1878 35.1244C13.1874 35.1396 13.1874 35.1548 13.187 35.1696C13.071 35.237 12.9803 35.2183 12.9219 35.0891C12.9545 35.087 12.9868 35.0848 13.0194 35.0826C13.0774 35.0909 13.141 35.0731 13.1878 35.1244Z" fill="#F7A41B"/>
<path d="M11.0771 34.6109C11.1231 34.6096 11.1687 34.6083 11.2146 34.607C11.2666 34.6392 11.3233 34.6531 11.3844 34.6492C11.3839 34.6661 11.3835 34.6835 11.3831 34.7005C11.2529 34.7674 11.148 34.7487 11.0771 34.6109Z" fill="#F7A41B"/>
<path d="M0.865234 30.3117C0.892733 30.3117 0.919802 30.3113 0.946871 30.3113C0.978237 30.3248 1.00917 30.3383 1.04054 30.3517C1.05429 30.3817 1.06804 30.4117 1.08136 30.4422C0.959761 30.4835 0.88414 30.4465 0.865234 30.3117Z" fill="#F7A41B"/>
<path d="M10.4842 34.39C10.4267 34.4105 10.3704 34.3478 10.3124 34.387C10.2952 34.4022 10.2814 34.4 10.2707 34.3796C10.2698 34.3548 10.2694 34.3305 10.2686 34.3057C10.3523 34.3026 10.4284 34.3205 10.4842 34.39Z" fill="#F7A41B"/>
<path d="M32.3321 35.8252C32.3454 35.827 32.3587 35.8265 32.3716 35.8235C32.4395 35.7852 32.5108 35.8031 32.5813 35.8109C32.598 35.8313 32.5997 35.8535 32.5869 35.8765C32.3514 35.9857 32.0923 35.9805 31.8448 36.03C31.8238 36.0365 31.8019 36.0409 31.7799 36.0439C31.6407 36.05 31.5058 36.0835 31.3705 36.1135C31.3498 36.12 31.3292 36.1248 31.3082 36.1287C31.1165 36.1344 30.9292 36.1761 30.7393 36.1974C30.7191 36.2039 30.6985 36.2087 30.6774 36.2126C30.5842 36.2287 30.4875 36.217 30.3968 36.2509C30.3758 36.2574 30.3547 36.2613 30.3328 36.2639C30.2237 36.2765 30.1115 36.2592 30.005 36.2983C29.959 36.3096 29.9126 36.3139 29.8658 36.3152C29.669 36.3196 29.4769 36.3579 29.2849 36.3952C28.4466 36.4605 27.61 36.5413 26.77 36.5879C25.7624 36.6439 24.7562 36.6013 23.7499 36.6209C23.3782 36.6283 23.0061 36.6113 22.6349 36.6252C22.3122 36.6374 21.9955 36.5613 21.6737 36.5783C21.3493 36.5252 21.0193 36.5448 20.6932 36.5074C20.2614 36.427 19.821 36.4287 19.3879 36.3596C19.3105 36.3474 19.2091 36.3761 19.1924 36.2513C19.3084 36.2287 19.424 36.2218 19.5391 36.2565C19.5671 36.2574 19.595 36.2583 19.6225 36.2596C19.7329 36.3152 19.8579 36.2444 19.9679 36.3009C19.9954 36.3018 20.0234 36.3026 20.0509 36.3031C20.1909 36.3587 20.3426 36.287 20.4827 36.3431C20.4964 36.3448 20.5106 36.3452 20.5248 36.3448C20.6932 36.4039 20.872 36.33 21.0408 36.387C22.6147 36.5209 24.1924 36.5479 25.7697 36.5061C26.6093 36.4839 27.4489 36.4305 28.2872 36.3548C29.0322 36.2874 29.7755 36.2096 30.518 36.1213C31.0388 36.0596 31.5548 35.9552 32.0725 35.8705C32.1516 35.8092 32.2526 35.8796 32.3321 35.8252Z" fill="#F7A41B"/>
<path d="M17.7795 36.0387C18.1361 36.0835 18.4931 36.1283 18.8498 36.1731C18.8798 36.2079 18.8755 36.2396 18.8425 36.2696C18.2289 36.2213 17.6158 36.1683 17.0177 36.01C16.9996 35.9896 16.997 35.9674 17.0104 35.9435C17.0813 35.9313 17.1526 35.9183 17.2213 35.9522C17.2492 35.9531 17.2772 35.9544 17.3051 35.9552C17.3704 36.0048 17.4559 35.947 17.5217 35.9965C17.5354 35.9978 17.5492 35.9987 17.5629 35.9987C17.6286 36.0483 17.7133 35.9918 17.7795 36.0387Z" fill="#F7A41B"/>
<path d="M16.1483 35.7778C16.4293 35.8487 16.7159 35.8848 17.0038 35.9126C17.0176 35.9178 17.0231 35.9252 17.021 35.9339C17.0184 35.9439 17.0154 35.9487 17.0115 35.9487L17.0042 35.9578C16.9398 36.0209 16.8603 36.0135 16.7834 36C16.5879 35.9661 16.3907 35.9452 16.1952 35.913C16.1118 35.8996 16.0036 35.9022 15.9688 35.787C16.0263 35.7417 16.0869 35.7535 16.1483 35.7778Z" fill="#F7A41B"/>
<path d="M18.8583 36.2409C18.8557 36.2183 18.8532 36.1957 18.8506 36.1731C19.0817 36.1909 19.3146 36.1922 19.5398 36.257C19.4255 36.257 19.3108 36.257 19.1965 36.257C19.0792 36.3422 18.9692 36.2818 18.8583 36.2409Z" fill="#F7A41B"/>
<path d="M13.9985 35.3483C14.1914 35.3331 14.3607 35.4691 14.5562 35.4361C14.5596 35.4483 14.5622 35.46 14.5639 35.4726C14.5562 35.4809 14.5489 35.4896 14.5411 35.4978C14.4681 35.5382 14.3899 35.5309 14.3117 35.5213C14.2077 35.4917 14.1007 35.4691 14.0079 35.4078C13.9907 35.3904 13.9877 35.3704 13.9985 35.3483Z" fill="#F7A41B"/>
<path d="M21.0414 36.3874C20.8696 36.3739 20.6921 36.4261 20.5254 36.3452C20.6973 36.3626 20.8756 36.3009 21.0414 36.3874Z" fill="#F7A41B"/>
<path d="M14.9919 35.5604C15.1548 35.5609 15.3142 35.5778 15.4645 35.6474C15.4564 35.6557 15.4487 35.6644 15.4409 35.6731C15.2759 35.727 15.126 35.6918 14.9863 35.5952C14.988 35.5835 14.9898 35.5722 14.9919 35.5604Z" fill="#F7A41B"/>
<path d="M20.4836 36.3435C20.3396 36.3309 20.1897 36.38 20.0518 36.3035C20.1957 36.3165 20.3461 36.26 20.4836 36.3435Z" fill="#F7A41B"/>
<path d="M19.9685 36.3013C19.8534 36.2883 19.7309 36.3356 19.623 36.26C19.7382 36.2722 19.8615 36.2179 19.9685 36.3013Z" fill="#F7A41B"/>
<path d="M32.3323 35.8252C32.2546 35.8918 32.16 35.8587 32.0732 35.8704C32.0737 35.8557 32.0741 35.8413 32.0745 35.8265C32.1605 35.8261 32.2464 35.8257 32.3323 35.8252Z" fill="#F7A41B"/>
<path d="M15.6782 35.6909C15.7641 35.7061 15.86 35.6631 15.9364 35.7344C15.9287 35.7426 15.9214 35.7509 15.9137 35.7591C15.8264 35.7935 15.7414 35.8105 15.6709 35.7239C15.6735 35.7126 15.6761 35.7018 15.6782 35.6909Z" fill="#F7A41B"/>
<path d="M17.7796 36.0387C17.7061 36.0326 17.6262 36.0635 17.5635 35.9987C17.6365 36.0057 17.7173 35.9709 17.7796 36.0387Z" fill="#F7A41B"/>
<path d="M17.5222 35.9965C17.4487 35.9896 17.3684 36.02 17.3057 35.9552C17.3791 35.9626 17.4608 35.9261 17.5222 35.9965Z" fill="#F7A41B"/>
<path d="M17.0116 35.9487C17.0086 35.937 17.0061 35.9248 17.0039 35.9126C17.0778 35.9191 17.159 35.8839 17.2213 35.9522C17.1517 35.9509 17.0817 35.95 17.0116 35.9487Z" fill="#F7A41B"/>
<path d="M16.1491 35.7778C16.0919 35.7783 16.0352 35.7791 15.978 35.7796C15.9656 35.7939 15.9505 35.7978 15.9334 35.7896C15.9248 35.7796 15.9213 35.7692 15.9235 35.7587C15.9252 35.7478 15.9273 35.7422 15.9299 35.7422L15.9372 35.7344C16.0081 35.747 16.0889 35.71 16.1491 35.7778Z" fill="#F7A41B"/>
<path d="M15.464 35.6474C15.5358 35.6596 15.617 35.6244 15.678 35.6909L15.6737 35.6974C15.5891 35.7509 15.5091 35.7795 15.458 35.6552L15.464 35.6474Z" fill="#F7A41B"/>
<path d="M14.7766 35.5174C14.8488 35.5287 14.93 35.4944 14.9915 35.5609L14.9872 35.5674C14.9111 35.6252 14.8385 35.6283 14.7715 35.5522C14.7732 35.5404 14.7749 35.5287 14.7766 35.5174Z" fill="#F7A41B"/>
<path d="M14.5633 35.4726C14.6346 35.4861 14.7159 35.4509 14.7764 35.517L14.7717 35.5244C14.6871 35.5744 14.6059 35.6083 14.5586 35.4787L14.5633 35.4726Z" fill="#F7A41B"/>
<path d="M31.8986 38.9452C31.7048 39.0304 31.4702 38.9726 31.2944 39.1209C31.2674 39.1222 31.2407 39.123 31.2137 39.1243C31.1522 39.1548 31.0856 39.16 31.0195 39.167C30.9451 39.1722 30.8708 39.1813 30.799 39.2017C30.7084 39.2191 30.6199 39.2513 30.5258 39.2491C30.512 39.253 30.4983 39.257 30.4845 39.2604C30.457 39.28 30.4274 39.293 30.3934 39.2952C30.3075 39.3043 30.2168 39.2791 30.1365 39.3296C30.0703 39.3461 29.9999 39.3365 29.9358 39.3648C29.4331 39.4513 28.9265 39.51 28.4247 39.603C28.3147 39.6578 28.1901 39.5865 28.0805 39.6448C28.0676 39.6478 28.0547 39.6495 28.0414 39.6487C27.9151 39.6995 27.7772 39.6291 27.6517 39.6887C27.549 39.7322 27.4412 39.6995 27.3363 39.7095C26.5165 39.8122 25.6911 39.8491 24.867 39.8748C24.0966 39.8987 23.3241 39.9043 22.5524 39.8604C21.9771 39.8278 21.4009 39.8065 20.8273 39.7504C20.4599 39.7143 20.0891 39.7087 19.7265 39.6348C19.5924 39.6074 19.4549 39.6526 19.3239 39.6035C19.3101 39.6039 19.2964 39.6035 19.2822 39.6022C18.6605 39.5156 18.0409 39.4143 17.4209 39.3156C17.1429 39.2713 16.8662 39.2135 16.5921 39.1448C16.5521 39.1035 16.4112 39.1561 16.4756 39.017C16.6402 38.9626 16.8039 39.007 16.9611 39.0413C18.0796 39.2856 19.2092 39.4413 20.3491 39.5461C21.8379 39.683 23.328 39.733 24.8215 39.7078C25.8639 39.69 26.9011 39.603 27.9374 39.4852C28.4629 39.4256 28.9854 39.353 29.5074 39.2717C29.8533 39.2178 30.1868 39.1065 30.5352 39.0626C30.882 39.0187 31.2248 38.9504 31.563 38.8574C31.6652 38.8291 31.7761 38.8291 31.8784 38.8791C31.9041 38.8944 31.911 38.9165 31.8986 38.9452Z" fill="#F7A41B"/>
<path d="M19.3232 39.6026C19.78 39.5892 20.2281 39.677 20.6801 39.7196C20.8924 39.7396 21.1059 39.7479 21.3178 39.7622C21.6576 39.7857 21.9992 39.8087 22.3404 39.8248C23.0102 39.8566 23.6801 39.8748 24.3495 39.857C25.3085 39.8313 26.2684 39.8113 27.2223 39.6909C27.2644 39.6857 27.3078 39.69 27.3507 39.69C27.3649 39.6992 27.3697 39.7083 27.3649 39.7174C27.3602 39.7265 27.3555 39.7309 27.3507 39.7309C25.8104 39.9113 24.2636 39.9457 22.7168 39.8939C21.6942 39.86 20.6698 39.8031 19.6549 39.6509C19.5441 39.6344 19.4242 39.6822 19.3232 39.6026Z" fill="#F7A41B"/>
<path d="M16.577 39.1222C17.2327 39.2665 17.8987 39.3531 18.5582 39.4752C18.7988 39.52 19.0541 39.4796 19.2814 39.6013C18.8912 39.6 18.5123 39.4987 18.1256 39.4687C17.6671 39.3822 17.2086 39.2944 16.7498 39.2105C16.6458 39.1913 16.5401 39.1818 16.4473 39.1244C16.4898 39.0926 16.5332 39.0957 16.577 39.1222Z" fill="#F7A41B"/>
<path d="M28.4238 39.6026C28.6962 39.4609 29.0043 39.5018 29.293 39.4392C29.5117 39.3918 29.7343 39.3244 29.965 39.3365C29.9711 39.3439 29.9771 39.3518 29.9831 39.3592C29.9775 39.367 29.9715 39.3748 29.9659 39.3826C29.5985 39.4409 29.2325 39.5066 28.8638 39.5531C28.7182 39.5718 28.5746 39.6257 28.4238 39.6026Z" fill="#F7A41B"/>
<path d="M30.5254 39.2487C30.6113 39.2209 30.6973 39.193 30.7832 39.1657C30.824 39.1357 30.867 39.1439 30.9108 39.1565C30.934 39.2852 30.8094 39.1991 30.7789 39.25C30.6947 39.2361 30.6096 39.33 30.5254 39.2487Z" fill="#F7A41B"/>
<path d="M27.6514 39.6883C27.7738 39.6009 27.9104 39.6561 28.041 39.6483C27.9169 39.7209 27.7815 39.6765 27.6514 39.6883Z" fill="#F7A41B"/>
<path d="M30.7793 39.25C30.8248 39.2231 30.87 39.1957 30.9155 39.1687C30.9404 39.1413 30.9739 39.1465 31.0057 39.1457C31.047 39.1505 31.0925 39.1322 31.1282 39.1683C31.0195 39.2296 30.9039 39.2596 30.7793 39.25Z" fill="#F7A41B"/>
<path d="M28.0801 39.6443C28.1862 39.5574 28.3095 39.6152 28.4242 39.6026C28.3168 39.6782 28.1952 39.633 28.0801 39.6443Z" fill="#F7A41B"/>
<path d="M27.3506 39.7309C27.3506 39.7174 27.3506 39.7035 27.3506 39.69C27.4507 39.6896 27.5508 39.6887 27.6514 39.6883C27.5594 39.7639 27.4511 39.7187 27.3506 39.7309Z" fill="#F7A41B"/>
<path d="M30.4008 39.2557C30.4288 39.2574 30.4563 39.2587 30.4842 39.2604C30.4472 39.3909 30.3424 39.3239 30.2651 39.3383C30.2535 39.3209 30.2543 39.3039 30.2664 39.287C30.3089 39.2648 30.3617 39.2909 30.4008 39.2557Z" fill="#F7A41B"/>
<path d="M30.2722 39.2991C30.2709 39.3122 30.2687 39.3252 30.2657 39.3383C30.2382 39.3396 30.2107 39.3413 30.1832 39.3426C30.1136 39.3735 30.0436 39.3691 29.9736 39.3457L29.9658 39.3365C30.0148 39.2826 30.0805 39.3017 30.1403 39.2957C30.185 39.2696 30.2292 39.2661 30.2722 39.2991Z" fill="#F7A41B"/>
<path d="M31.1276 39.1687C31.0842 39.1679 31.0408 39.1665 30.9974 39.1657C30.9837 39.1561 30.9794 39.1465 30.9845 39.1378C30.9897 39.1292 30.9944 39.1248 30.9996 39.1248C31.0709 39.1244 31.1422 39.1244 31.2131 39.1239C31.1848 39.1387 31.156 39.1539 31.1276 39.1687Z" fill="#F7A41B"/>
<path d="M29.9737 39.3457C30.0437 39.3448 30.1137 39.3435 30.1834 39.3426C30.1211 39.4113 30.0398 39.3757 29.9668 39.3826C29.9685 39.37 29.9707 39.3579 29.9737 39.3457Z" fill="#F7A41B"/>
<path d="M33.6982 35.6013C34.4098 35.4335 35.1235 35.2744 35.8324 35.0957C36.6866 34.88 37.5378 34.6509 38.3752 34.3731C38.9767 34.1735 39.5791 33.9774 40.1811 33.78C40.2137 33.7583 40.2455 33.7574 40.276 33.7844C40.2528 33.9196 40.1338 33.9374 40.038 33.97C39.186 34.2591 38.3236 34.5165 37.4716 34.8065C37.3564 34.8457 37.2327 34.8487 37.115 34.8774C36.9564 34.9048 36.8069 34.9687 36.6488 34.9961C36.6101 35.0148 36.5706 35.0322 36.5289 35.0435C36.2548 35.0939 35.9914 35.19 35.7177 35.2422C35.6975 35.2496 35.6769 35.2548 35.6558 35.2591C35.5299 35.2735 35.4075 35.3048 35.2859 35.3417C35.1699 35.3644 35.0689 35.4391 34.9477 35.4448C34.8158 35.4413 34.6908 35.4739 34.5683 35.52C34.494 35.5496 34.4179 35.5726 34.3376 35.5783C34.2005 35.5717 34.0806 35.6504 33.9474 35.6596C33.8705 35.6648 33.7928 35.6717 33.7214 35.6291C33.7137 35.6196 33.706 35.6104 33.6982 35.6013Z" fill="#F7A41B"/>
<path d="M41.5594 33.2191C41.7304 33.1613 41.8859 33.0578 42.0715 33.043C42.087 33.0613 42.0896 33.0813 42.0788 33.103C41.8245 33.2631 41.5581 33.3917 41.2556 33.4252C41.2341 33.4178 41.2182 33.4039 41.207 33.3839C41.3071 33.2904 41.4562 33.3052 41.5594 33.2191Z" fill="#F7A41B"/>
<path d="M40.271 33.7831C40.2414 33.7822 40.2113 33.7809 40.1816 33.78C40.4347 33.6287 40.7136 33.5474 40.9941 33.4713C40.9988 33.4813 41.0036 33.4918 41.0079 33.5018C40.796 33.6865 40.5464 33.77 40.271 33.7831Z" fill="#F7A41B"/>
<path d="M32.7979 35.7761C33.0922 35.6879 33.3951 35.6439 33.698 35.6013L33.704 35.6096C33.6344 35.7653 33.4767 35.7122 33.3611 35.7592C33.3422 35.7661 33.3225 35.7709 33.3027 35.7753C33.234 35.7866 33.1644 35.7905 33.0978 35.8148C33.078 35.8209 33.0574 35.8253 33.0367 35.8279C32.962 35.8331 32.8872 35.8409 32.818 35.8013C32.8116 35.7926 32.8047 35.7844 32.7979 35.7761Z" fill="#F7A41B"/>
<path d="M32.5865 35.8657C32.586 35.8505 32.5856 35.8348 32.5852 35.8196C32.5714 35.8087 32.568 35.7996 32.5744 35.7922C32.58 35.7857 32.5856 35.7822 32.5912 35.7822C32.6041 35.7839 32.617 35.7831 32.6298 35.7796C32.6861 35.7783 32.742 35.7774 32.7983 35.7761L32.8034 35.7835C32.7648 35.9013 32.6853 35.9096 32.5865 35.8657Z" fill="#F7A41B"/>
<path d="M40.9941 33.4713C41.0551 33.4174 41.1277 33.3909 41.2077 33.3839L41.2175 33.397C41.1827 33.5187 41.1058 33.5339 41.0027 33.4835L40.9941 33.4713Z" fill="#F7A41B"/>
<path d="M45.2523 37.3065C45.236 37.3322 45.2192 37.3582 45.2029 37.3839C45.0267 37.5287 44.8759 37.7035 44.6838 37.8287C44.5502 37.9156 44.4157 38.0004 44.2499 37.9074C44.1627 37.7882 44.1695 37.6522 44.1824 37.5152L44.1721 37.5165C44.2885 37.2274 44.405 36.9387 44.5214 36.6495C44.5842 36.5704 44.5846 36.4622 44.6435 36.3813C44.6447 36.3548 44.6465 36.3278 44.6477 36.3013C44.7229 36.2287 44.7161 36.1165 44.7732 36.0356C44.7745 36.023 44.7766 36.0109 44.7797 35.9982C44.8729 35.9304 44.9253 35.8248 44.9365 35.7235C44.9807 35.3235 45.1668 34.9696 45.2875 34.5961C45.4895 33.9717 45.6618 33.343 45.746 32.6922C45.7774 32.4496 45.7731 32.2065 45.7305 31.9609C45.6863 31.707 45.5763 31.5161 45.3498 31.3961C45.1217 31.2296 44.8493 31.1848 44.5854 31.14C43.858 31.0161 43.1207 31.0239 42.3885 31.0557C41.9142 31.0761 41.4381 31.1261 40.9642 31.1752C40.7038 31.1778 40.4434 31.1835 40.1891 31.2509C40.0468 31.2883 39.8947 31.2287 39.7555 31.2956C39.6296 31.3204 39.5016 31.3126 39.374 31.3296C39.1188 31.3639 39.0212 31.213 39.1106 30.9535C39.1394 30.8687 39.1978 30.82 39.276 30.7726C39.4513 30.6661 39.6228 30.5526 39.7942 30.4396C39.8092 30.427 39.8256 30.4161 39.8427 30.407C39.9386 30.373 40.0404 30.353 40.1203 30.2826C40.1521 30.2622 40.1861 30.2465 40.2187 30.2278C40.2801 30.2039 40.3386 30.173 40.3944 30.1378C40.4928 30.0517 40.6265 30.05 40.7365 29.9926C40.7377 29.9826 40.7408 29.9735 40.7459 29.9648C40.8413 29.9235 40.9436 29.9074 41.0432 29.8804C41.069 29.8774 41.0948 29.8739 41.1202 29.8709C41.1962 29.7922 41.292 29.7683 41.3964 29.7665C41.5344 29.7913 41.6418 29.7022 41.7634 29.6661C42.8406 29.3874 43.9375 29.3087 45.0439 29.3339C45.4633 29.3435 45.8813 29.3809 46.2942 29.4604C46.6199 29.5522 46.9559 29.5978 47.2791 29.7039C47.817 29.88 47.7925 30.0622 47.8591 30.4696C47.9064 30.7591 47.8677 31.0561 47.8638 31.35C47.863 31.4004 47.8617 31.4517 47.8148 31.4852C47.7066 31.4596 47.7324 31.3661 47.7263 31.2939C47.713 31.1309 47.744 30.9683 47.7375 30.8148C47.7246 30.9035 47.7599 31.007 47.6408 31.0843C47.5738 31.1278 47.7057 31.4487 47.8024 31.5083C47.8578 31.6739 47.7934 31.8322 47.774 31.9935C47.6391 32.6652 47.4621 33.3261 47.2481 33.9761C47.0595 34.523 46.8266 35.0496 46.5387 35.5509C46.5035 35.6126 46.4794 35.6813 46.4313 35.7352C46.2453 36.0743 45.9797 36.3591 45.7958 36.7C45.6794 36.8778 45.5037 37.0026 45.3786 37.1726L45.3778 37.1735C45.3198 37.2008 45.2746 37.2426 45.2523 37.3065Z" fill="#F7A41B"/>
<path d="M45.3775 31.3931C45.5868 31.4318 45.68 31.5657 45.7285 31.7713C45.8334 32.2139 45.8115 32.6461 45.7337 33.0926C45.5915 33.9096 45.3182 34.6822 45.0364 35.4548C44.9904 35.5809 44.9702 35.7187 44.9521 35.8526C44.9371 35.9626 44.8808 36.0018 44.7803 35.9987C44.7803 35.9696 44.7803 35.94 44.7803 35.9109C44.8374 35.8626 44.8606 35.7905 44.9019 35.7309C44.8903 35.5574 44.9255 35.3966 45.0273 35.2539C45.0733 35.1739 45.0733 35.0774 45.1176 34.997C45.1184 34.9009 45.1498 34.8144 45.2005 34.7344C45.2624 34.5483 45.3277 34.3626 45.3754 34.1718C45.5438 33.5409 45.7212 32.9122 45.7178 32.2496C45.7165 31.9405 45.6456 31.667 45.3775 31.4805C45.3749 31.4687 45.3736 31.4565 45.3736 31.4444C45.3595 31.4265 45.3612 31.4091 45.3775 31.3931Z" fill="#F7A41B"/>
<path d="M45.3751 34.1722C45.3626 34.3744 45.3037 34.5617 45.2002 34.7348C45.2225 34.5357 45.2844 34.3496 45.3751 34.1722Z" fill="#F7A41B"/>
<path d="M44.7729 36.0361C44.7759 36.1465 44.7866 36.2604 44.6475 36.3017C44.6573 36.1978 44.6488 36.0848 44.7729 36.0361Z" fill="#F7A41B"/>
<path d="M44.6445 36.3822C44.6389 36.4878 44.6454 36.5992 44.5225 36.6505C44.5225 36.5422 44.5246 36.4348 44.6445 36.3822Z" fill="#F7A41B"/>
<path d="M44.9018 35.7313C44.9113 35.8257 44.8911 35.9 44.7803 35.9113C44.788 35.8283 44.8052 35.7522 44.9018 35.7313Z" fill="#F7A41B"/>
<path d="M45.1176 34.9974C45.1171 35.0939 45.1021 35.1848 45.0273 35.2548C45.0329 35.16 45.0368 35.0648 45.1176 34.9974Z" fill="#F7A41B"/>
<path d="M45.377 31.393C45.3757 31.4104 45.3749 31.4274 45.3736 31.4448C45.2842 31.4304 45.2275 31.3296 45.1257 31.3478C44.8631 31.2 44.5688 31.1674 44.2805 31.1391C43.3898 31.0522 42.5004 31.0948 41.6084 31.1609C41.0326 31.2035 40.4611 31.2952 39.8837 31.3083C39.8506 31.2635 39.7861 31.3109 39.7539 31.2639C39.8897 31.177 40.0405 31.24 40.1831 31.2204C40.4379 31.1652 40.7 31.1761 40.9566 31.1344C41.7785 31.087 42.5966 30.9574 43.4233 31.0044C44.0072 31.0374 44.5954 31.0374 45.157 31.24C45.2451 31.2713 45.3349 31.2961 45.377 31.393Z" fill="#F7A41B"/>
<path d="M39.7537 31.2635C39.8014 31.2652 39.8525 31.2565 39.8834 31.3078C39.6768 31.3426 39.4714 31.4043 39.26 31.3635C38.9743 31.3083 38.9261 31.1648 39.101 30.9117C39.1208 30.8909 39.1384 30.8926 39.1539 30.9165C39.0671 31.2439 39.1143 31.2965 39.4589 31.2665C39.5569 31.2578 39.6557 31.2644 39.7537 31.2635Z" fill="#F7A41B"/>
<path d="M39.1534 30.9165C39.1358 30.9148 39.1182 30.9135 39.1006 30.9118C39.1057 30.8857 39.1109 30.8596 39.1161 30.8335C39.3206 30.6918 39.5135 30.5304 39.7468 30.4352C39.7786 30.4152 39.81 30.4113 39.8396 30.4396C39.6402 30.6413 39.3666 30.7344 39.1534 30.9165Z" fill="#F7A41B"/>
<path d="M16.5773 39.1222C16.5339 39.123 16.491 39.1239 16.4476 39.1248C15.4052 38.9178 14.3821 38.6343 13.36 38.3448C13.2031 38.3004 13.0613 38.2013 12.8899 38.2091C12.5964 38.0452 12.266 37.9844 11.9554 37.8665C11.6503 37.7509 11.3358 37.66 11.041 37.517C11.0239 37.477 10.9031 37.5096 10.9684 37.4113C11.0166 37.3861 11.0664 37.3896 11.1137 37.41C11.5927 37.617 12.1036 37.7326 12.5874 37.9226C13.2225 38.1722 13.8812 38.3348 14.5364 38.5122C14.7504 38.57 14.9579 38.6517 15.1766 38.6917C15.2673 38.7417 15.3635 38.7722 15.4671 38.7765C15.4868 38.78 15.5062 38.7857 15.5255 38.7922C15.6174 38.83 15.7141 38.8517 15.8112 38.873C15.8701 38.89 15.9302 38.9013 15.99 38.9157C16.1339 38.957 16.2856 38.9613 16.4274 39.0122C16.4351 39.02 16.4424 39.0283 16.4497 39.0361C16.4918 39.0652 16.5348 39.0935 16.5773 39.1222Z" fill="#F7A41B"/>
<path d="M10.2701 34.3796C10.2839 34.3822 10.2981 34.3848 10.3118 34.387C10.5004 34.4839 10.711 34.5104 10.9095 34.5744C10.9567 34.6274 11.0186 34.6117 11.0775 34.6109C11.1703 34.6726 11.2738 34.6965 11.383 34.7004C11.5995 34.7704 11.8161 34.84 12.0326 34.9096C12.0099 34.9409 11.9772 34.9539 11.9415 34.9617C11.8041 34.9817 11.6752 34.9509 11.5424 34.9131C11.1656 34.8057 10.7883 34.7004 10.4063 34.6139C10.161 34.5583 9.93843 34.4404 9.69867 34.3683C9.1603 34.2061 8.63653 33.9957 8.09343 33.8452C7.99761 33.8187 7.88117 33.7874 7.8584 33.6543C7.88933 33.627 7.92242 33.6291 7.95593 33.6487C7.98214 33.6513 8.00835 33.6535 8.03456 33.6561C8.15831 33.7122 8.29193 33.7387 8.41826 33.7883C8.49775 33.8409 8.58454 33.8691 8.67907 33.8717C8.75684 33.9213 8.85222 33.9191 8.93214 33.9626C9.36783 34.1357 9.81039 34.2857 10.2701 34.3796Z" fill="#F7A41B"/>
<path d="M4.90612 32.3922C5.19142 32.4509 5.42902 32.6378 5.71261 32.7009C5.95322 32.8257 6.19126 32.957 6.44906 33.0448C6.46367 33.067 6.46109 33.087 6.44132 33.1044C6.35582 33.1539 6.27375 33.1257 6.19813 33.0848C5.78909 32.8661 5.34395 32.7309 4.92932 32.5257C4.86745 32.4948 4.76433 32.5004 4.77636 32.3844C4.82104 32.3622 4.86444 32.3652 4.90612 32.3922Z" fill="#F7A41B"/>
<path d="M7.95627 33.6483C7.92619 33.6496 7.89611 33.6505 7.86561 33.6518C7.82565 33.6778 7.78182 33.6722 7.74272 33.657C7.49051 33.56 7.23872 33.4631 6.98479 33.3705C6.93753 33.3531 6.89757 33.3226 6.87136 33.277C6.86233 33.2544 6.86534 33.2331 6.87909 33.2135C7.24817 33.3335 7.6164 33.4552 7.95627 33.6483Z" fill="#F7A41B"/>
<path d="M6.8792 33.2135C6.87877 33.2291 6.87834 33.2443 6.87791 33.26C6.70433 33.2813 6.56253 33.2204 6.44824 33.0891C6.44824 33.0743 6.44824 33.0596 6.44867 33.0448C6.60077 33.0787 6.74257 33.1387 6.8792 33.2135Z" fill="#F7A41B"/>
<path d="M8.41885 33.7874C8.27964 33.7774 8.14644 33.7491 8.03516 33.6552C8.17437 33.6657 8.30542 33.7009 8.41885 33.7874Z" fill="#F7A41B"/>
<path d="M8.93276 33.9618C8.83909 33.9578 8.74672 33.95 8.67969 33.8709C8.77507 33.8705 8.86359 33.8887 8.93276 33.9618Z" fill="#F7A41B"/>
<path d="M46.3207 29.4844C45.6853 29.4035 45.0489 29.3287 44.4074 29.3565C43.5627 29.3931 42.7197 29.4518 41.8986 29.68C41.8444 29.6948 41.7864 29.6948 41.7306 29.7018C41.6734 29.7287 41.6163 29.7452 41.5596 29.7013C41.8242 29.5891 42.1052 29.5396 42.3841 29.4831C42.4524 29.4691 42.5203 29.4552 42.5886 29.4413C43.5025 29.3122 44.4212 29.2752 45.3419 29.3144C45.7445 29.3313 46.1489 29.3665 46.5399 29.4826C46.4668 29.5205 46.3938 29.5135 46.3207 29.4844Z" fill="#F7A41B"/>
<path d="M46.3203 29.4843C46.3934 29.4839 46.466 29.4835 46.539 29.4826C46.8488 29.5104 47.1354 29.6322 47.4327 29.7104C47.813 29.8496 47.8895 30.1739 47.9092 30.5252C47.9337 30.9587 47.9062 31.3917 47.8641 31.8235C47.7687 32.0487 47.8121 32.3078 47.6978 32.5287C47.6269 32.3465 47.7438 32.1787 47.7378 32.0017C47.7778 31.8304 47.7894 31.657 47.7812 31.4817L47.7816 31.4813C47.8895 30.9909 47.8714 30.5026 47.715 30.0278C47.6708 29.893 47.5174 29.8326 47.3825 29.777C47.0705 29.6478 46.7332 29.6252 46.414 29.5274C46.3813 29.5178 46.3512 29.4991 46.3203 29.4843Z" fill="#F7A41B"/>
<path d="M31.8984 38.9452C31.8997 38.9326 31.9006 38.92 31.901 38.9074C31.941 38.8496 32.0037 38.8326 32.0656 38.8174C32.7548 38.6465 33.4379 38.4531 34.1258 38.2778C34.1817 38.2635 34.2371 38.2526 34.2917 38.2817C34.3132 38.2983 34.317 38.3183 34.3028 38.3417C33.569 38.5852 32.8171 38.7596 32.0673 38.9422C32.0144 38.9544 31.9552 38.9444 31.8984 38.9452Z" fill="#F7A41B"/>
<path d="M36.1103 37.693C36.0201 37.8404 35.8332 37.8061 35.7185 37.9074C35.6054 37.9374 35.4924 37.9674 35.3794 37.9974C35.2896 38.0057 35.2089 38.0739 35.1126 38.0391C35.1032 37.9696 35.1474 37.9339 35.199 37.9074C35.4383 37.7831 35.6944 37.7065 35.9556 37.6483C36.0119 37.6352 36.0686 37.6435 36.1103 37.693Z" fill="#F7A41B"/>
<path d="M35.1186 38.0378C35.2054 38.0243 35.287 37.9761 35.3794 37.997C35.1186 38.1183 34.8449 38.1991 34.5652 38.2613C34.5609 38.2509 34.5566 38.2409 34.5527 38.2304C34.7078 38.0661 34.9029 38.0204 35.1186 38.0378Z" fill="#F7A41B"/>
<path d="M34.3037 38.3409C34.3037 38.3265 34.3037 38.3117 34.3037 38.2974C34.3716 38.1878 34.4588 38.1848 34.5585 38.25L34.5662 38.2609C34.4786 38.2878 34.3909 38.3144 34.3037 38.3409Z" fill="#F7A41B"/>
<path d="M9.06197 36.6948H9.04263L9.02373 36.6917C8.75046 36.5639 8.48105 36.4287 8.20736 36.3022H8.20779C8.15322 36.2674 8.08576 36.2591 8.03463 36.2165C7.93495 36.1726 7.83569 36.1283 7.73601 36.0844C7.68144 36.0504 7.61355 36.0435 7.56457 35.9978C7.48981 35.9326 7.39528 35.9074 7.30892 35.8648C7.17271 35.8065 7.05155 35.7191 6.9205 35.6509C6.62059 35.4757 6.32068 35.3004 6.02077 35.1257C5.99671 35.097 5.99241 35.067 6.0139 35.0348C6.10026 34.9887 6.16342 35.0496 6.23045 35.0852C6.85906 35.4217 7.48207 35.7691 8.12357 36.0809C8.4948 36.2617 8.85444 36.467 9.23856 36.6209C9.30817 36.6487 9.39195 36.6783 9.36789 36.787C9.25102 36.8078 9.16423 36.7252 9.06197 36.6948Z" fill="#F7A41B"/>
<path d="M6.01948 35.0418C6.01991 35.0696 6.02034 35.0978 6.02077 35.1257C5.665 34.9231 5.30881 34.7209 4.95304 34.5183C4.92168 34.4761 4.89074 34.4335 4.85938 34.3913C4.94918 34.3165 5.0407 34.36 5.11331 34.4091C5.3651 34.5791 5.62032 34.7426 5.89015 34.8822C5.95288 34.9144 6.00702 34.9635 6.01948 35.0418Z" fill="#F7A41B"/>
<path d="M8.20703 36.3022C8.50135 36.3848 8.76947 36.5235 9.0234 36.6917C8.8756 36.703 8.77591 36.5748 8.63842 36.5565C8.5194 36.4291 8.31015 36.4578 8.20703 36.3022Z" fill="#F7A41B"/>
<path d="M6.9209 35.6509C7.07343 35.6791 7.19374 35.7674 7.30932 35.8648C7.14733 35.8535 7.03089 35.7583 6.9209 35.6509Z" fill="#F7A41B"/>
<path d="M7.30859 35.8648C7.4143 35.8687 7.50668 35.8991 7.56425 35.9978C7.46586 35.9791 7.37691 35.9422 7.30859 35.8648Z" fill="#F7A41B"/>
<path d="M8.03516 36.2165C8.10562 36.2187 8.1662 36.2413 8.20831 36.3022C8.13484 36.3065 8.07211 36.2883 8.03516 36.2165Z" fill="#F7A41B"/>
<path d="M7.56445 35.9974C7.6332 36.0031 7.69378 36.0248 7.73589 36.0839C7.66242 36.0883 7.59754 36.0748 7.56445 35.9974Z" fill="#F7A41B"/>
<path d="M4.90603 32.3922C4.8622 32.3926 4.8188 32.393 4.77498 32.3935C4.52233 32.3922 4.31609 32.2465 4.1034 32.1456C3.23891 31.7348 2.3886 31.2943 1.54129 30.8483C1.5095 30.8317 1.482 30.8087 1.45407 30.7861C1.4068 30.7343 1.31486 30.7104 1.34321 30.6096C1.81327 30.817 2.24981 31.0904 2.70999 31.317C3.32356 31.6187 3.94056 31.9139 4.5567 32.2109C4.5812 32.2226 4.61256 32.2196 4.64092 32.2235C4.72857 32.2796 4.81708 32.3356 4.90603 32.3922Z" fill="#F7A41B"/>
<path d="M1.34217 30.6096C1.35678 30.6817 1.43799 30.6883 1.46979 30.7435C1.36108 30.8244 1.27987 30.7383 1.20124 30.6887C1.00789 30.5665 0.811534 30.4526 0.590684 30.39C0.355656 30.3235 0.213865 30.4326 0.225036 30.6674C0.225896 30.7139 0.219021 30.757 0.18078 30.7887C0.0510205 30.6344 0.0497314 30.4626 0.166172 30.3143C0.29808 30.1465 0.493149 30.2178 0.665447 30.2378C0.733764 30.2457 0.798214 30.2861 0.864383 30.3117C0.915084 30.3917 0.996721 30.4191 1.08094 30.4422C1.09769 30.4778 1.12949 30.4844 1.16386 30.4857C1.21499 30.5287 1.28546 30.5348 1.33745 30.5765C1.34003 30.5874 1.34132 30.5983 1.34217 30.6096Z" fill="#F7A41B"/>
<path d="M1.33863 30.5765C1.2673 30.5726 1.20328 30.5548 1.16504 30.4857C1.23808 30.487 1.29996 30.5087 1.33863 30.5765Z" fill="#F7A41B"/>
<path d="M39.8409 30.4396C39.8099 30.4383 39.779 30.437 39.748 30.4352C40.0518 30.2287 40.3693 30.0526 40.7375 29.9931C40.6477 30.0978 40.4918 30.0791 40.3994 30.1787C40.3423 30.2078 40.2748 30.2165 40.2267 30.2644C40.1983 30.2791 40.17 30.2939 40.142 30.3087C40.0462 30.3648 39.9371 30.3865 39.8409 30.4396Z" fill="#EBB045"/>
<path d="M41.5578 29.7018C41.615 29.7018 41.6717 29.7022 41.7289 29.7022C41.6343 29.8131 41.5054 29.7839 41.3851 29.7883C41.3709 29.7792 41.3662 29.7705 41.3709 29.7613C41.3756 29.7526 41.3808 29.7483 41.3855 29.7483C41.4435 29.7348 41.511 29.757 41.5578 29.7018Z" fill="#F7A41B"/>
<path d="M41.3862 29.7483C41.3858 29.7618 41.3858 29.7748 41.3858 29.7883C41.2977 29.8161 41.2092 29.8435 41.1211 29.8713C41.1692 29.7417 41.2766 29.7422 41.3862 29.7483Z" fill="#EBB14D"/>
<path d="M41.0434 29.8809C40.9541 29.9444 40.8535 29.9665 40.7461 29.9652C40.8329 29.893 40.9313 29.8617 41.0434 29.8809Z" fill="#EBB14D"/>
<path d="M46.4063 35.7357C46.6525 35.1809 47.0169 34.6804 47.1497 34.0735C47.1561 34.0448 47.1965 34.0235 47.221 33.9987C47.2378 33.9843 47.2537 33.9848 47.2691 34.0009C47.2532 34.0722 47.2373 34.1439 47.2219 34.2152C47.0216 34.6496 46.8214 35.0843 46.6212 35.5187C46.5503 35.6204 46.479 35.7222 46.4081 35.8239C46.3793 35.7952 46.3831 35.7657 46.4063 35.7357Z" fill="#F7A41B"/>
<path d="M46.4059 35.7357C46.4063 35.7652 46.4068 35.7948 46.4072 35.8239H46.4068C46.3565 35.8687 46.3531 35.9387 46.3183 35.9918C46.1769 36.2213 46.0304 36.4479 45.8503 36.6492C45.8246 36.6705 45.8117 36.7196 45.7627 36.6918C45.7726 36.5092 45.9359 36.4213 46.0158 36.2809C46.1266 36.0879 46.2744 35.9165 46.4059 35.7357Z" fill="#F7A41B"/>
<path d="M44.2633 37.9057C44.5332 37.9496 44.7063 37.77 44.8932 37.6244C44.9963 37.5439 45.0664 37.4191 45.2039 37.3844C45.0144 37.6287 44.7952 37.837 44.5069 37.9592C44.3987 38.0052 44.3007 38.0035 44.2178 37.9078C44.2324 37.8874 44.247 37.8857 44.2633 37.9057Z" fill="#F7A41B"/>
<path d="M45.7636 36.6922C45.7928 36.6779 45.822 36.6635 45.8512 36.6496C45.7438 36.8696 45.5702 37.0287 45.3799 37.1722C45.4469 36.9618 45.6635 36.8744 45.7636 36.6922Z" fill="#F7A41B"/>
<path d="M44.2627 37.9057C44.2477 37.9065 44.2326 37.907 44.2176 37.9074C44.2034 37.8917 44.1892 37.8757 44.175 37.86C44.1248 37.7596 44.1286 37.6591 44.1742 37.5587C44.1768 37.5444 44.1798 37.53 44.1828 37.5157C44.209 37.6457 44.2356 37.7757 44.2627 37.9057Z" fill="#F7A41B"/>
<path d="M44.1749 37.5587C44.1753 37.6592 44.1753 37.7596 44.1757 37.8605C44.0636 37.76 44.0722 37.6596 44.1749 37.5587Z" fill="#F7A41B"/>
<path d="M45.2522 37.3065C45.248 37.217 45.2905 37.1726 45.3786 37.1726C45.352 37.2322 45.306 37.2731 45.2522 37.3065Z" fill="#F7A41B"/>
<path d="M46.3194 35.9918C46.3181 35.9191 46.3302 35.8539 46.4079 35.8239C46.3976 35.8904 46.3783 35.9518 46.3194 35.9918Z" fill="#F7A41B"/>
<path d="M0.182437 30.6557C0.144626 30.5765 0.1008 30.4865 0.190171 30.4235C0.316923 30.3344 0.449261 30.2683 0.620269 30.3326C0.860024 30.4226 1.0813 30.5444 1.29485 30.6826C1.35071 30.7187 1.40227 30.75 1.46972 30.7435C2.08888 31.0639 2.71061 31.3796 3.32675 31.7061C3.79982 31.9565 4.29265 32.1626 4.77431 32.3935C5.26456 32.6461 5.79692 32.8009 6.28244 33.0652C6.32842 33.0904 6.39244 33.0822 6.44829 33.0891C6.59137 33.1461 6.73445 33.203 6.87796 33.26C7.20709 33.3904 7.53622 33.5213 7.86577 33.6517C7.98393 33.7474 8.11885 33.793 8.26579 33.8343C8.66023 33.9452 9.04693 34.0848 9.4375 34.2096C9.81389 34.33 10.18 34.4783 10.5637 34.5839C10.9168 34.6813 11.2846 34.7348 11.6245 34.8813C11.7289 34.9261 11.8351 34.9039 11.9403 34.9135C12.281 35.0239 12.6304 35.1009 12.9788 35.1796C13.4845 35.3261 13.995 35.4535 14.5123 35.55C14.5686 35.563 14.6266 35.563 14.6838 35.5696C14.9037 35.6322 15.1246 35.6935 15.3558 35.6978C15.3802 35.7009 15.403 35.7078 15.4254 35.7183C16.0703 35.9113 16.7397 35.9709 17.3993 36.0783C18.0799 36.1887 18.7665 36.2556 19.4518 36.3335C19.8677 36.3804 20.2875 36.397 20.7 36.4735C21.0158 36.4522 21.3299 36.4683 21.6418 36.52C21.8661 36.5613 22.0925 36.5835 22.3203 36.5839C23.3502 36.5861 24.3801 36.5752 25.41 36.5887C26.0313 36.5965 26.6505 36.5756 27.27 36.5426C27.9304 36.5069 28.5853 36.4052 29.2469 36.387C29.2989 36.3856 29.3423 36.3587 29.3887 36.3409C29.4721 36.3065 29.5636 36.3413 29.6474 36.3104C29.8068 36.2874 29.9744 36.3322 30.1265 36.2491C30.1995 36.2183 30.2837 36.2652 30.3542 36.2156C30.3684 36.2152 30.3821 36.2152 30.3963 36.2152C30.4908 36.16 30.6025 36.2309 30.6966 36.1726L30.6979 36.1722C30.9115 36.1383 31.128 36.1239 31.3411 36.0856L31.3416 36.0852C31.4842 36.0535 31.6312 36.0448 31.7708 35.9987C31.785 35.9983 31.7987 35.9978 31.8129 35.9978C32.2331 35.9565 32.6473 35.8783 33.0585 35.7817C33.0727 35.7813 33.0869 35.7813 33.1006 35.7809C33.1651 35.7309 33.2506 35.7909 33.3146 35.7383L33.3163 35.7374C33.6545 35.6396 34.0167 35.6613 34.3467 35.523C34.418 35.5078 34.4889 35.4922 34.5602 35.477C34.6878 35.4417 34.8202 35.4287 34.9474 35.3917C35.0732 35.4078 35.1588 35.2643 35.2902 35.3035C35.4174 35.267 35.5502 35.2565 35.6765 35.217C35.9665 35.1596 36.2548 35.0961 36.535 35C36.5633 34.9852 36.5917 34.9704 36.6205 34.9556C36.7842 34.9348 36.9483 34.9165 37.0931 34.8261C37.9443 34.6191 38.7697 34.3261 39.5972 34.0426C39.8237 33.9648 40.0772 33.9539 40.2697 33.7839C40.5098 33.6743 40.7754 33.6291 41.0014 33.4848C41.0839 33.4835 41.1565 33.457 41.2162 33.3983C41.5221 33.3539 41.7834 33.1843 42.0708 33.0887C42.1288 33.0304 42.2259 33.0574 42.2805 32.9917C42.3664 32.9509 42.4524 32.9096 42.5383 32.8687C42.6517 32.8248 42.7708 32.8296 42.8889 32.8261C42.9156 32.8252 42.9422 32.8239 42.9688 32.823C42.9899 32.8104 43.0114 32.8096 43.0337 32.8196C43.5433 32.8678 43.7543 33.1622 43.6172 33.6326C43.576 33.7143 43.4969 33.7726 43.4733 33.8661C43.4458 33.9109 43.4131 33.9491 43.3573 33.9556C43.3109 33.9726 43.255 33.9787 43.2193 34.0087C42.882 34.2922 42.5001 34.5109 42.1473 34.7713C41.9866 34.89 41.7825 34.9365 41.6407 35.0856C41.5101 35.2452 41.3176 35.3113 41.1475 35.4065C40.7157 35.6487 40.2933 35.9096 39.8387 36.1087C39.2965 36.3643 38.7761 36.6683 38.2068 36.8635C38.1372 36.8756 38.0667 36.8856 37.9971 36.8783C37.8511 36.8626 37.7552 36.9278 37.6942 37.0574C37.6504 37.1113 37.5894 37.1326 37.5254 37.1491C37.2908 37.2704 37.0085 37.2769 36.7979 37.4565C36.5853 37.5056 36.3846 37.5865 36.1908 37.6869C36.1637 37.6891 36.1367 37.6913 36.11 37.6939C35.7564 37.7417 35.4161 37.8274 35.1184 38.0391C34.9349 38.1191 34.7231 38.1235 34.5572 38.2513C34.4704 38.2565 34.3815 38.2496 34.3024 38.2987C33.7013 38.4561 33.1006 38.6156 32.4987 38.7704C32.3006 38.8217 32.0999 38.8622 31.9001 38.9078C31.6686 38.8891 31.4481 38.9374 31.2277 39.0069C30.9226 39.1035 30.6017 39.1139 30.288 39.163C30.0689 39.1974 29.8695 39.2956 29.6457 39.3161C29.1374 39.3626 28.6347 39.4609 28.1298 39.5322C27.3207 39.6461 26.5022 39.6304 25.6979 39.7709C25.5514 39.7965 25.4031 39.7665 25.2549 39.7682C24.3324 39.7817 23.4082 39.8065 22.4874 39.7639C21.8639 39.7348 21.2362 39.7174 20.6153 39.6417C20.0237 39.5696 19.4286 39.5448 18.8386 39.4413C18.1959 39.3291 17.5466 39.2583 16.9129 39.09C16.7633 39.0504 16.6031 39.0535 16.448 39.0369C16.2924 38.9965 16.1317 38.9878 15.9758 38.9504C15.9165 38.9439 15.8494 38.9691 15.8035 38.9074C15.7064 38.8678 15.6015 38.8561 15.5036 38.82C15.4086 38.7726 15.2853 38.8265 15.2032 38.733C14.8238 38.7035 14.4788 38.5343 14.1106 38.4587C13.4287 38.3187 12.7829 38.0543 12.1246 37.8369C11.7332 37.7078 11.3366 37.5887 10.9538 37.4309C10.8077 37.4522 10.7012 37.3552 10.5791 37.3043C10.4567 37.2209 10.314 37.1948 10.174 37.1613C9.92517 37.0656 9.691 36.9348 9.4375 36.8517C9.40355 36.8404 9.37735 36.8161 9.3666 36.7791C9.30817 36.6678 9.18786 36.6787 9.09462 36.6335C8.62972 36.4065 8.15537 36.1952 7.70379 35.9465C7.15725 35.6456 6.58837 35.3843 6.05987 35.0496C6.0487 35.0426 6.03195 35.0448 6.01777 35.0426C5.72087 34.8187 5.36553 34.69 5.07894 34.4474C5.02738 34.4035 4.9393 34.3796 4.85766 34.3926L4.85852 34.393C4.72017 34.2661 4.54572 34.1935 4.39749 34.0809C3.71302 33.6583 3.08399 33.1561 2.43691 32.6804C2.082 32.4409 1.81045 32.0917 1.42633 31.8904C1.1088 31.6052 0.780536 31.333 0.46344 31.047C0.339266 30.933 0.236575 30.8157 0.182437 30.6557Z" fill="#F7A41B"/>
<path d="M43.5737 33.6522C43.7133 33.2378 43.5479 32.9465 43.1285 32.8717C43.0868 32.8644 43.0434 32.8674 43.0146 32.8278C43.1014 32.7931 43.1882 32.797 43.2755 32.8248C43.7228 32.9913 43.8426 33.4526 43.5371 33.8318C43.5298 33.8252 43.5225 33.8183 43.5152 33.8118C43.4907 33.7422 43.5487 33.7031 43.5737 33.6522Z" fill="#F7A41B"/>
<path d="M43.3578 33.9548C43.3866 33.9261 43.4149 33.8974 43.4437 33.8687C43.4678 33.8461 43.4807 33.8018 43.5279 33.8239L43.5369 33.8318C43.4867 33.9565 43.4037 34.0474 43.2744 34.0896C43.3023 34.0448 43.3303 33.9996 43.3578 33.9548Z" fill="#F7A41B"/>
<path d="M42.8906 32.8248C42.7824 32.9117 42.6573 32.857 42.54 32.8674C42.5594 32.833 42.5916 32.8257 42.6268 32.8244C42.714 32.7948 42.8021 32.7991 42.8898 32.8217L42.8906 32.8248Z" fill="#F7A41B"/>
<path d="M42.2814 32.9904C42.2363 33.0774 42.1559 33.087 42.0717 33.0874C42.0717 33.0726 42.0713 33.0578 42.0713 33.0431C42.1345 32.9974 42.2092 32.9987 42.2814 32.9904Z" fill="#F7A41B"/>
<path d="M43.2752 32.8248C43.1884 32.8257 43.1012 32.8265 43.0144 32.8278C42.9994 32.8257 42.9843 32.8239 42.9697 32.8218C43.072 32.7557 43.1738 32.767 43.2752 32.8248Z" fill="#F7A41B"/>
<path d="M42.8889 32.8218C42.8013 32.8226 42.7136 32.8235 42.626 32.8244C42.7132 32.7696 42.8008 32.7574 42.8889 32.8218Z" fill="#F7A41B"/>
<path d="M2.45804 32.6531C2.94744 32.9665 3.37624 33.3665 3.8665 33.6757C4.05684 33.7957 4.21195 33.9726 4.43237 34.0439C4.456 34.0748 4.45944 34.1057 4.43065 34.1357C4.0577 33.9409 3.72342 33.6874 3.3857 33.4391C3.04755 33.1905 2.70725 32.9452 2.36781 32.6983C2.36781 32.6844 2.36695 32.6709 2.36523 32.657C2.39488 32.6261 2.42582 32.6296 2.45804 32.6531Z" fill="#F7A41B"/>
<path d="M4.42969 34.1357C4.43012 34.1052 4.43098 34.0744 4.43141 34.0439C4.55214 34.1878 4.7846 34.1913 4.86022 34.3922C4.80479 34.3765 4.74936 34.3609 4.69394 34.3452C4.63464 34.2383 4.48855 34.243 4.42969 34.1357Z" fill="#F7A41B"/>
<path d="M37.5223 37.1261C37.5653 37.0974 37.6083 37.0687 37.6512 37.04C37.8076 36.8896 38.0216 36.8909 38.2094 36.8235C38.7529 36.5774 39.2964 36.3309 39.84 36.0848C39.864 36.1004 39.8649 36.1174 39.8434 36.1361C39.693 36.2739 39.4747 36.2909 39.3269 36.4326C39.1405 36.5191 38.9536 36.6061 38.7671 36.6926C38.697 36.7278 38.6201 36.7439 38.5492 36.7765C38.5217 36.7922 38.4942 36.8083 38.4672 36.8239C38.4087 36.8509 38.3439 36.8644 38.2932 36.907L38.2923 36.9065C38.025 36.963 37.7943 37.1261 37.5249 37.1757C37.5137 37.1652 37.5094 37.1548 37.5129 37.1435C37.5155 37.1313 37.5189 37.1261 37.5223 37.1261Z" fill="#F7A41B"/>
<path d="M37.5224 37.1261C37.5229 37.1422 37.5237 37.1583 37.5241 37.1748C37.3342 37.2857 37.1323 37.3691 36.9226 37.4326C36.8887 37.4574 36.8509 37.4548 36.8126 37.45C36.8057 37.4435 36.7989 37.4365 36.792 37.4296C36.9737 37.1757 37.284 37.2391 37.5224 37.1261Z" fill="#F7A41B"/>
<path d="M36.1914 37.6861C36.353 37.5078 36.5631 37.4465 36.7921 37.4291L36.7942 37.4322C36.817 37.4813 36.774 37.4935 36.7483 37.5148C36.5605 37.5639 36.3938 37.6848 36.1914 37.6861Z" fill="#F7A41B"/>
<path d="M36.748 37.5148C36.7635 37.4874 36.7786 37.4596 36.794 37.4322C36.837 37.4322 36.8795 37.4322 36.9225 37.4322C36.8761 37.4852 36.8172 37.5122 36.748 37.5148Z" fill="#F7A41B"/>
<path d="M47.2694 34.0009C47.2535 34 47.2376 33.9996 47.2217 33.9987C47.2354 33.73 47.3493 33.4874 47.4266 33.2361C47.4421 33.1857 47.4761 33.1391 47.4834 33.0804C47.5306 32.7122 47.6574 32.3626 47.7373 32.0022C47.7665 32.1813 47.6789 32.3509 47.6973 32.5291C47.6041 33.0343 47.4735 33.5287 47.2694 34.0009Z" fill="#F7A41B"/>
<path d="M39.8433 36.1352C39.842 36.1183 39.8411 36.1013 39.8398 36.0839C40.4405 35.7509 41.0407 35.4174 41.6414 35.0844C41.6728 35.0857 41.7037 35.087 41.7351 35.0883C41.3475 35.3783 40.9136 35.5892 40.4946 35.8252C40.4586 35.8457 40.4268 35.8735 40.3928 35.8978C40.1978 35.9478 40.0444 36.0978 39.8433 36.1352Z" fill="#F7A41B"/>
<path d="M9.36842 36.7787C9.64771 36.8765 9.92141 36.9883 10.1839 37.1257C10.3219 37.1857 10.471 37.2083 10.6123 37.257C10.7124 37.3439 10.8289 37.397 10.9552 37.4309C10.984 37.46 11.0128 37.4887 11.0416 37.5178C10.886 37.5165 10.7648 37.4 10.6127 37.3865C10.1152 37.1765 9.61763 36.9674 9.12093 36.7557C9.0973 36.7457 9.08184 36.7157 9.0625 36.6952C9.17851 36.67 9.26058 36.773 9.36842 36.7787Z" fill="#F7A41B"/>
<path d="M0.18293 30.6557C0.533969 31.1283 1.04613 31.4317 1.4294 31.8709C1.4135 31.89 1.39631 31.8913 1.37784 31.8748C1.22445 31.8239 1.1557 31.6526 1.00059 31.6044C0.820129 31.4074 0.617755 31.2365 0.399483 31.0839C0.343626 30.973 0.203554 30.9257 0.181641 30.7887C0.18207 30.7444 0.1825 30.7 0.18293 30.6557Z" fill="#F7A41B"/>
<path d="M1.37793 31.8748C1.39512 31.8735 1.4123 31.8722 1.42949 31.8709C1.5687 31.87 1.68042 31.9561 1.76678 32.0374C1.97173 32.2313 2.17969 32.4192 2.40785 32.5839C2.42976 32.5996 2.44179 32.6296 2.45812 32.6531C2.42718 32.6544 2.39625 32.6552 2.36488 32.6566C2.01427 32.4235 1.686 32.1622 1.37793 31.8748Z" fill="#F7A41B"/>
<path d="M12.9716 35.2161C12.6236 35.1305 12.2545 35.1174 11.9404 34.9131C11.9714 34.9118 12.0019 34.9109 12.0328 34.9096C12.2678 34.937 12.4891 35.0218 12.7156 35.0839C12.8114 35.1448 12.9549 35.0883 13.0249 35.2122C13.009 35.2352 12.991 35.2365 12.9716 35.2161Z" fill="#F7A41B"/>
<path d="M13.0183 35.2139C12.9311 35.1387 12.7962 35.1761 12.7158 35.0839C12.785 35.0857 12.8537 35.0874 12.9229 35.0896C13.0033 35.1435 13.0914 35.1713 13.1876 35.17C13.4579 35.2296 13.7281 35.2891 13.9988 35.3487C14.0022 35.3613 14.0044 35.3744 14.0053 35.3878C13.9314 35.4548 13.851 35.43 13.7672 35.4109C13.5154 35.3535 13.271 35.2674 13.0183 35.2139Z" fill="#F7A41B"/>
<path d="M38.5498 36.7757C38.6104 36.7152 38.683 36.6878 38.7676 36.6918C38.7101 36.76 38.6362 36.7852 38.5498 36.7757Z" fill="#F7A41B"/>
<path d="M38.293 36.9061C38.3304 36.8335 38.3931 36.8161 38.467 36.8231C38.4223 36.8791 38.363 36.9048 38.293 36.9061Z" fill="#F7A41B"/>
<path d="M32.5912 35.7822C32.5886 35.7943 32.5865 35.807 32.5852 35.8196C32.5143 35.8209 32.4434 35.8222 32.3721 35.8239C32.4344 35.7513 32.5169 35.7887 32.5912 35.7822Z" fill="#F7A41B"/>
<path d="M37.3054 24.8861C37.2659 24.8383 37.2268 24.7909 37.1873 24.7431C37.1207 24.6135 37.042 24.4935 36.9277 24.4009C36.7933 24.1661 36.6257 23.9552 36.4598 23.7431C36.4457 23.6909 36.4225 23.6452 36.373 23.6183C36.3584 23.5861 36.3477 23.5513 36.3284 23.5222C35.6589 22.52 35.3173 21.417 35.3178 20.2044C35.3195 16.9631 35.3152 13.7222 35.3169 10.4809C35.3178 9.16523 35.3087 7.84957 35.0583 6.55218C34.9392 5.93697 34.7768 5.33175 34.4795 4.77392C34.4554 4.64088 34.4086 4.52001 34.3046 4.42827C34.2655 4.29392 34.1847 4.18479 34.1001 4.0774C33.9901 3.8487 33.847 3.64392 33.6687 3.46479L33.6554 3.47697C33.655 3.47653 33.655 3.47653 33.6545 3.4761C33.6593 3.47218 33.664 3.46827 33.6687 3.46479C33.2622 2.91566 32.7703 2.45827 32.2091 2.07566C32.2057 2.08044 32.2022 2.08479 32.1984 2.08957C32.1979 2.08914 32.1975 2.0887 32.1971 2.08827L32.2087 2.07566C32.1051 1.98262 32.0024 1.88784 31.8589 1.86131C31.8632 1.8661 31.8675 1.87044 31.8714 1.87523C31.8662 1.87175 31.8619 1.8674 31.8589 1.86131C31.8486 1.81479 31.8117 1.82218 31.779 1.82044C31.7408 1.71479 31.6437 1.68827 31.5552 1.65088C31.4185 1.52697 31.2638 1.43566 31.0851 1.3887C30.0926 0.883053 29.0437 0.550009 27.9532 0.346096C27.9288 0.334357 27.9051 0.315661 27.8793 0.311314C27.1502 0.183488 26.4193 0.0669659 25.6777 0.0365311C25.6773 0.0239224 25.6773 0.0117485 25.6769 -0.000860214C25.0904 -0.000860214 24.5039 -0.000860214 23.9174 -0.000860214C23.9174 0.0117485 23.9169 0.0243572 23.9165 0.0369659C23.3906 0.0521833 22.8668 0.105662 22.3474 0.184357C21.9091 0.250879 21.4622 0.27914 21.0394 0.432183C20.6485 0.474792 20.2746 0.594357 19.9017 0.707835C19.3062 0.88914 18.7124 1.07957 18.162 1.38131C18.082 1.39088 18.0172 1.43392 17.9523 1.47697C17.8474 1.4674 17.783 1.54262 17.7069 1.59305C17.7014 1.59523 17.6962 1.5987 17.6906 1.60392C17.5527 1.65914 17.4139 1.71305 17.3035 1.81914C16.9907 2.00305 16.6719 2.17784 16.3999 2.42392C16.2405 2.5174 16.0888 2.62044 15.9711 2.7674C15.8731 2.79784 15.8091 2.87262 15.7429 2.94523C15.7335 2.95479 15.7236 2.96436 15.7141 2.97392C15.5019 3.15523 15.2961 3.34305 15.1212 3.56218C15.1182 3.56218 15.1156 3.56479 15.113 3.5687C14.9803 3.6774 14.8496 3.78784 14.7783 3.95218C14.6907 4.0661 14.6026 4.18001 14.5149 4.29349C14.386 4.41914 14.2928 4.56914 14.2206 4.73349C14.1617 4.82262 14.0982 4.9087 14.0449 5.00088C13.7505 5.50957 13.4833 6.03088 13.317 6.59914C13.3058 6.61436 13.299 6.63001 13.296 6.64566C13.1254 7.01697 13.0227 7.40784 12.9716 7.81349C12.8672 8.15218 12.7847 8.48957 13.0188 8.81218C13.0489 8.92566 13.1198 8.99697 13.2328 9.02523C13.259 9.04262 13.2848 9.05957 13.311 9.07697C13.3694 9.14523 13.4519 9.1687 13.5306 9.20175C13.7617 9.29957 14.0084 9.26523 14.2477 9.29479C15.3502 9.42957 16.4536 9.55305 17.5604 9.64392C17.5742 9.6474 17.5879 9.65044 17.6012 9.65305C18.0442 9.75871 18.4984 9.77088 18.9491 9.80566C19.084 9.8161 19.2305 9.76696 19.3225 9.63653C19.5674 9.48262 19.7148 9.24784 19.7771 8.9774C19.8768 8.54697 20.0216 8.13523 20.1939 7.73131C20.19 7.73479 20.1861 7.73827 20.1827 7.74175C20.1861 7.73783 20.19 7.73436 20.1939 7.73131C20.2287 7.71653 20.2398 7.69044 20.2317 7.65392C20.4444 7.37523 20.657 7.09653 20.8697 6.81783C20.9823 6.7774 21.0502 6.68349 21.1254 6.59827L21.1267 6.5974C21.186 6.59436 21.2186 6.54957 21.256 6.51262C21.4257 6.43131 21.5847 6.33175 21.7282 6.2087C22.5794 5.7774 23.4847 5.61218 24.4308 5.64523C24.4828 5.65827 24.5348 5.6674 24.5864 5.66957C25.175 5.76566 25.7465 5.92001 26.2788 6.20697C26.7304 6.51001 27.087 6.90262 27.3513 7.38088C27.3685 7.43479 27.3818 7.49088 27.4037 7.54305C27.5648 7.92175 27.6606 8.3174 27.7066 8.72653C27.8042 9.58957 27.7492 10.4557 27.7698 11.3204C27.7736 11.4731 27.7178 11.5417 27.5644 11.5565C26.8778 11.6239 26.192 11.6991 25.5063 11.7713C25.2579 11.7635 25.0117 11.7731 24.7724 11.8522C24.7591 11.8509 24.7458 11.8531 24.7337 11.8587C24.3664 11.8213 24.0098 11.9226 23.6497 11.9596C23.2518 12.0004 22.8496 12.0383 22.4582 12.1357C22.429 12.1378 22.4002 12.1435 22.3714 12.1574C22.0896 12.2013 21.8073 12.2431 21.5263 12.29C20.7387 12.4217 19.9627 12.6078 19.1962 12.8283C18.623 12.9931 18.0575 13.1878 17.523 13.4613C17.352 13.4896 17.2055 13.5735 17.0642 13.6678C17.0594 13.67 17.0543 13.6731 17.0495 13.6774C16.8665 13.7417 16.6989 13.8361 16.537 13.9417C16.4334 13.9904 16.317 14.0209 16.2624 14.1391C16.2499 14.1352 16.2409 14.1391 16.2358 14.1513C15.9199 14.3161 15.6282 14.5157 15.3665 14.7591C14.9386 15.0726 14.5519 15.4304 14.2163 15.8444C14.1179 15.9087 14.0513 16 13.9972 16.1026C13.65 16.4783 13.3712 16.9017 13.1413 17.3596C12.6046 18.2504 12.3094 19.2304 12.1346 20.2478C11.9502 21.3213 11.9472 22.4031 12.0856 23.4835C12.1857 24.2635 12.3511 25.0274 12.6725 25.7491C12.6966 25.8952 12.7503 26.0278 12.8392 26.1461C12.8375 26.16 12.8422 26.1713 12.8534 26.18C12.8573 26.2657 12.9174 26.32 12.9621 26.3826C12.9651 26.3883 12.969 26.3935 12.9737 26.3991C13.0618 26.6048 13.1641 26.8013 13.3119 26.97C13.3119 26.9696 13.3119 26.9691 13.3119 26.9691C13.3823 27.1591 13.5202 27.3004 13.6496 27.4483C13.6496 27.4483 13.6491 27.4483 13.6491 27.4478C13.9856 27.9504 14.4354 28.3383 14.9012 28.7096C14.9309 28.76 14.9691 28.7965 15.0327 28.79C15.095 28.8822 15.1942 28.9222 15.2836 28.977C15.3253 29.0026 15.3674 29.0287 15.4091 29.0544C15.5096 29.1161 15.5951 29.2065 15.7202 29.2213C15.791 29.2926 15.8766 29.3352 15.9737 29.3552C16.1799 29.5113 16.4072 29.6174 16.6628 29.6587C16.686 29.6748 16.7071 29.6965 16.7325 29.7057C17.5308 29.9887 18.3459 30.1922 19.1962 30.2213C19.2473 30.2796 19.316 30.2539 19.3771 30.2578C19.8441 30.2883 20.3112 30.2761 20.7786 30.26C21.4193 30.2378 22.0586 30.1996 22.6894 30.0778C23.2106 29.9774 23.7326 29.8765 24.2229 29.6583C24.424 29.63 24.6057 29.5522 24.7733 29.4378C24.8369 29.4209 24.9 29.4039 24.949 29.3548C25.2296 29.2722 25.4852 29.1409 25.716 28.9596C25.789 28.9174 25.8625 28.8757 25.9355 28.8335C26.1078 28.7561 26.2634 28.6517 26.4073 28.5287C26.4876 28.5157 26.5388 28.4639 26.5774 28.3965C27.1163 28.0252 27.6151 27.6044 28.0843 27.147C28.294 26.9535 28.5088 26.7661 28.7112 26.5648C28.8139 26.4626 28.8766 26.4544 28.9582 26.5844C29.0764 26.7722 29.21 26.95 29.3333 27.1344C29.9065 27.9891 30.5347 28.7944 31.3386 29.4439C31.3425 29.4391 31.3468 29.4348 31.3506 29.43C31.3506 29.43 31.3506 29.43 31.3506 29.4304L31.3382 29.4439C31.4946 29.6091 31.6639 29.7583 31.8542 29.8826C31.8658 29.9326 31.9062 29.9457 31.9475 29.9578C32.2456 30.1748 32.8059 30.14 33.0564 29.9152C33.3615 29.7244 33.6146 29.4704 33.8758 29.2261C34.2024 28.9661 34.5272 28.7039 34.8224 28.407C34.9169 28.3422 35.0239 28.2922 35.0776 28.1804C35.0913 28.167 35.1051 28.1531 35.1184 28.1396C35.4097 27.9631 35.6465 27.72 35.8957 27.4922C36.0173 27.3991 36.1522 27.3217 36.2411 27.1904C36.3374 27.1626 36.4027 27.0952 36.4577 27.0157C36.7924 26.7478 37.1417 26.4983 37.4335 26.1791C37.7317 25.967 37.6466 25.2174 37.3054 24.8861ZM23.6226 29.7922C23.6226 29.7917 23.6226 29.7917 23.6226 29.7922C23.6226 29.7917 23.623 29.7917 23.6235 29.7917C23.623 29.7917 23.623 29.7917 23.6226 29.7922ZM24.0463 11.9804C24.0467 11.9809 24.0467 11.9809 24.0471 11.9813C24.045 11.9813 24.0428 11.9813 24.0411 11.9813C24.0428 11.9809 24.0446 11.9804 24.0463 11.9804ZM28.2098 0.476966C28.2093 0.476966 28.2093 0.476966 28.2089 0.476966L28.2093 0.476531C28.2093 0.476966 28.2093 0.476966 28.2098 0.476966ZM36.4224 23.8787C36.4186 23.8752 36.4147 23.8713 36.4104 23.8678C36.4147 23.8652 36.4194 23.8626 36.4242 23.8604C36.4237 23.867 36.4229 23.8731 36.4224 23.8787ZM35.5305 22.29C35.5128 22.2557 35.4957 22.2209 35.481 22.1852C35.5073 22.2161 35.5219 22.2522 35.5305 22.29ZM26.2857 11.8309C26.3527 11.8304 26.4206 11.8326 26.4889 11.8404C26.4112 11.8357 26.3347 11.8344 26.2586 11.8335C26.2677 11.8326 26.2767 11.8317 26.2857 11.8309ZM27.0363 21.9887C27.0028 22.0513 26.9659 22.1126 26.9246 22.1713C26.8542 22.2535 26.7996 22.3474 26.7523 22.4431C26.5757 22.7983 26.3038 23.0878 26.1018 23.4252C26.0769 23.4722 26.0485 23.5157 26.0189 23.5578C25.8938 23.6783 25.7688 23.7983 25.6442 23.9187C25.6111 23.9409 25.5776 23.9626 25.5432 23.9831C25.5175 23.9996 25.4934 24.0183 25.4715 24.0396C25.395 24.1039 25.3155 24.1639 25.2343 24.2213C25.1256 24.2935 25.0186 24.3678 24.9065 24.4344C24.9048 24.4352 24.9035 24.4361 24.9017 24.437C24.8339 24.477 24.7638 24.5144 24.6912 24.5461C24.6744 24.557 24.6585 24.5696 24.6422 24.5809C24.5602 24.6165 24.4781 24.6496 24.396 24.6804C23.452 25 22.5149 25.0331 21.589 24.5944C21.5392 24.5691 21.4897 24.5431 21.4399 24.5148C21.4356 24.5122 21.4309 24.5096 21.4266 24.5074C21.2001 24.3583 21.0016 24.1722 20.7911 24.0022C20.7043 23.9013 20.6171 23.8004 20.5303 23.6996C20.4805 23.6174 20.431 23.5348 20.3812 23.4526C20.343 23.3809 20.306 23.3091 20.2669 23.2383C20.2635 23.2139 20.26 23.19 20.2497 23.1687C19.9455 22.5274 19.848 21.8452 19.8334 21.1409C19.8192 20.4422 19.9502 19.77 20.1402 19.1052C20.2996 18.7117 20.5204 18.3557 20.7645 18.0139C20.8057 17.9696 20.8504 17.9274 20.8998 17.8891C21.1421 17.6657 21.3944 17.4535 21.6375 17.2313C21.6668 17.1987 21.6973 17.1683 21.7295 17.14C21.8081 17.0952 21.8812 17.0422 21.9525 16.9865C21.9877 16.9674 22.0243 16.9491 22.0612 16.9322C22.078 16.9226 22.0947 16.9126 22.1102 16.9009C22.1317 16.8861 22.1536 16.8717 22.1759 16.8574C22.2391 16.8317 22.2984 16.797 22.3564 16.7609C22.4084 16.74 22.4629 16.7252 22.5218 16.7196C22.6606 16.6822 22.7878 16.6213 22.8982 16.527C22.9059 16.5178 22.9128 16.5078 22.9193 16.4978C22.9657 16.4948 23.0095 16.4844 23.0524 16.4691C23.1375 16.4483 23.2166 16.3965 23.3017 16.3774C23.3072 16.3744 23.3128 16.3717 23.3184 16.3687C23.4215 16.3378 23.5247 16.307 23.6278 16.2761C23.6669 16.2665 23.7055 16.2557 23.7434 16.2413C23.8448 16.2109 23.9462 16.1804 24.0476 16.15C24.2336 16.1039 24.3337 16.0661 24.5176 16.0357C24.5314 16.0339 24.5451 16.0317 24.5589 16.0291C24.5739 16.027 24.5894 16.0248 24.6057 16.0226C24.9305 15.98 25.2549 15.9383 25.5798 15.8948C26.2457 15.8057 26.916 15.8065 27.5859 15.7883C27.7294 15.7844 27.7848 15.8426 27.7827 15.9957C27.7642 17.2917 27.8166 18.59 27.6679 19.8817C27.6602 19.9322 27.6533 19.9831 27.6465 20.0339C27.64 20.0544 27.6344 20.0748 27.6319 20.0952C27.5133 20.5504 27.3942 21.0057 27.2757 21.4609C27.2666 21.47 27.2576 21.4783 27.2499 21.4883C27.2396 21.5048 27.231 21.5226 27.225 21.5413C27.2048 21.6017 27.1833 21.6617 27.1605 21.7209C27.115 21.8091 27.0729 21.8978 27.0363 21.9887ZM21.4708 30.0917C21.467 30.0917 21.4635 30.0917 21.4597 30.0917C21.461 30.0874 21.4618 30.0835 21.4627 30.08C21.4657 30.0835 21.4683 30.0874 21.4708 30.0917C21.4713 30.0917 21.4708 30.0917 21.4708 30.0917C21.4713 30.0917 21.4713 30.0917 21.4708 30.0917ZM18.8404 9.70653C18.8352 9.7061 18.8301 9.70566 18.8249 9.70479C18.834 9.69783 18.8438 9.69305 18.8546 9.69001C18.8499 9.69392 18.8451 9.69957 18.8404 9.70653ZM26.6857 11.7222C26.6827 11.7222 26.6797 11.7222 26.6767 11.7222C26.6754 11.7217 26.6746 11.7213 26.6733 11.7204C26.6754 11.72 26.6776 11.72 26.6797 11.7196C26.6819 11.7204 26.684 11.7213 26.6857 11.7222ZM17.1716 13.7839C17.1647 13.7878 17.1578 13.7913 17.1509 13.7952C17.1565 13.7909 17.1634 13.787 17.1716 13.7839ZM12.3296 20.0613C12.3425 20.0674 12.3528 20.0717 12.3619 20.0757C12.3528 20.08 12.3404 20.0765 12.3292 20.0726C12.3292 20.0687 12.3292 20.0648 12.3296 20.0613ZM12.3283 23.9961C12.3412 23.9965 12.3571 23.9944 12.3765 23.9904C12.3653 24.0017 12.3507 24.0109 12.3279 24.0152C12.3283 24.0087 12.3283 24.0022 12.3283 23.9961ZM12.541 24.5022C12.5436 24.4978 12.5462 24.4931 12.5492 24.4883C12.5462 24.4944 12.544 24.4996 12.5415 24.5052C12.541 24.5044 12.541 24.5035 12.541 24.5022ZM27.9331 27.1239C27.9318 27.1252 27.9309 27.127 27.9296 27.1283C27.9305 27.127 27.9318 27.1252 27.9331 27.1239ZM28.1685 26.89C28.1638 26.8996 28.1561 26.9057 28.1462 26.9083C28.1535 26.9022 28.1612 26.8961 28.1685 26.89ZM32.8321 29.8431C32.8356 29.8104 32.8558 29.8461 32.8678 29.8522C32.8545 29.8609 32.8403 29.8687 32.8257 29.8765C32.8283 29.8665 32.8308 29.8557 32.8321 29.8431ZM34.4412 4.76784C34.44 4.76827 34.4387 4.7687 34.4374 4.76914C34.4369 4.76827 34.437 4.7674 34.4365 4.76697C34.4378 4.76697 34.4395 4.7674 34.4412 4.76784ZM34.3003 4.51436C34.2995 4.51262 34.2986 4.51131 34.2973 4.50957C34.2982 4.51044 34.2995 4.51088 34.3003 4.51175C34.3003 4.51262 34.3003 4.51349 34.3003 4.51436ZM25.8002 5.90914C25.7998 5.90914 25.8002 5.90914 25.8002 5.90914C25.7998 5.90914 25.7998 5.90914 25.8002 5.90914ZM22.6292 12.1613C22.6284 12.1622 22.6275 12.1631 22.6262 12.1639C22.6258 12.1631 22.6258 12.1622 22.6254 12.1613C22.6266 12.1609 22.6279 12.1613 22.6292 12.1613ZM17.517 13.5009C17.5166 13.5009 17.5166 13.5009 17.5166 13.5009C17.5166 13.5004 17.5166 13.5004 17.5166 13.5C17.517 13.5004 17.517 13.5009 17.517 13.5009ZM17.1011 13.6809C17.1007 13.6809 17.1007 13.6813 17.1002 13.6813V13.6809C17.1007 13.6809 17.1011 13.6809 17.1011 13.6809ZM12.2428 20.1044C12.2428 20.107 12.2428 20.1096 12.2428 20.1122C12.2424 20.1117 12.2416 20.1113 12.2411 20.1109C12.2416 20.1087 12.2424 20.1065 12.2428 20.1044ZM12.7073 25.7557C12.7082 25.7552 12.7095 25.7544 12.7103 25.7539C12.7108 25.7548 12.7108 25.7557 12.7112 25.7565C12.7099 25.7561 12.7086 25.7561 12.7073 25.7557ZM16.3062 29.4848C16.3105 29.4839 16.3144 29.4831 16.3187 29.4817C16.3187 29.4852 16.3187 29.4891 16.3187 29.4926C16.3144 29.49 16.3101 29.4874 16.3062 29.4848ZM16.659 29.6204C16.6581 29.6222 16.6573 29.6239 16.6568 29.6257C16.656 29.6235 16.6555 29.6209 16.6543 29.6187C16.6555 29.6196 16.6573 29.62 16.659 29.6204Z" fill="#231F20"/>
<path d="M29.4111 36.3461C29.3552 36.4104 29.2826 36.433 29.2006 36.4313C28.7374 36.4217 28.2819 36.5196 27.8252 36.5431C27.4604 36.5618 27.096 36.6105 26.7287 36.6087C25.2055 36.6009 23.6823 36.6052 22.1592 36.6061C21.9817 36.6061 21.8068 36.6 21.6436 36.5196C23.1835 36.6022 24.7251 36.5674 26.2659 36.5535C27.0239 36.547 27.7839 36.4909 28.5389 36.3952C28.7992 36.3622 29.0635 36.3604 29.326 36.3448C29.3544 36.3196 29.3827 36.3196 29.4111 36.3461Z" fill="#F7A41B"/>
<path d="M20.7 36.4726C20.2966 36.4574 19.8974 36.4057 19.4965 36.3622C19.0677 36.3157 18.6389 36.2552 18.2096 36.2243C17.7409 36.1909 17.2867 36.0813 16.8231 36.0252C16.4098 35.9757 15.9947 35.9239 15.5891 35.823C15.5143 35.8044 15.4348 35.7957 15.376 35.7365C15.5672 35.6878 15.7485 35.7744 15.9358 35.7787C15.9496 35.7783 15.9638 35.7783 15.9775 35.7796C16.3075 35.9117 16.6603 35.91 17.0044 35.9578C17.4328 36.0796 17.8775 36.0961 18.3132 36.1691C18.4937 36.1996 18.6763 36.2174 18.8576 36.2413C18.9727 36.1904 19.0819 36.2704 19.1953 36.257C19.3801 36.3296 19.5803 36.3044 19.7693 36.3461C20.0766 36.413 20.4023 36.3391 20.7 36.4726Z" fill="#F7A41B"/>
<path d="M33.0591 35.7804C32.6561 35.9252 32.241 35.9974 31.8135 35.9965C32.067 35.9278 32.3256 35.8904 32.5865 35.8657C32.6634 35.8504 32.7403 35.8361 32.8034 35.7835C32.8885 35.7822 32.974 35.7813 33.0591 35.7804Z" fill="#F7A41B"/>
<path d="M31.3415 36.0839C31.1331 36.1565 30.9174 36.177 30.6982 36.1704C30.9071 36.0961 31.1232 36.0805 31.3415 36.0839Z" fill="#F7A41B"/>
<path d="M30.1412 36.2583C30.0041 36.4017 29.8279 36.3248 29.6689 36.3448C29.6977 36.2052 29.8275 36.3283 29.8838 36.26C29.9263 36.2591 29.9693 36.2583 30.0118 36.2574C30.0552 36.2283 30.0982 36.2283 30.1412 36.2583Z" fill="#F7A41B"/>
<path d="M29.8832 36.2596C29.8317 36.3391 29.7195 36.2622 29.6684 36.3443C29.5824 36.3448 29.4965 36.3452 29.4102 36.3461C29.3814 36.3456 29.353 36.3448 29.3242 36.3443C29.5068 36.2891 29.6916 36.2509 29.8832 36.2596Z" fill="#F7A41B"/>
<path d="M31.771 35.997C31.6382 36.0791 31.4913 36.0887 31.3418 36.0835C31.4784 36.0213 31.6215 35.9931 31.771 35.997Z" fill="#F7A41B"/>
<path d="M30.141 36.2583C30.0981 36.2579 30.0547 36.2579 30.0117 36.2574C30.1178 36.1735 30.2412 36.2313 30.3555 36.2144C30.2953 36.2861 30.2132 36.247 30.141 36.2583Z" fill="#F7A41B"/>
<path d="M30.6978 36.1709C30.6071 36.2539 30.4976 36.1987 30.3975 36.2135C30.4886 36.1339 30.5977 36.1857 30.6978 36.1709Z" fill="#F7A41B"/>
<path d="M13.0181 35.2139C13.2724 35.2196 13.5101 35.3126 13.7567 35.3596C13.84 35.3752 13.9204 35.3935 14.005 35.3874C14.1116 35.3896 14.2061 35.4352 14.3028 35.4731C14.3479 35.5178 14.4046 35.4918 14.4558 35.4987C14.5215 35.5078 14.5585 35.5318 14.5189 35.6044C14.1829 35.5326 13.8452 35.4674 13.5113 35.387C13.3283 35.3431 13.1513 35.2739 12.9717 35.2161C12.9871 35.2157 13.0026 35.2148 13.0181 35.2139Z" fill="#F7A41B"/>
<path d="M14.5193 35.6044C14.5055 35.4626 14.3466 35.5648 14.3027 35.4731C14.3878 35.4752 14.4733 35.477 14.5584 35.4792C14.6198 35.5413 14.6993 35.5144 14.7715 35.5248C14.8351 35.5826 14.9137 35.5592 14.9868 35.5674C15.138 35.6296 15.2961 35.6535 15.4581 35.6552C15.5217 35.7131 15.6008 35.6878 15.6738 35.6974C15.7499 35.7644 15.8435 35.7296 15.929 35.7422C15.932 35.7544 15.9346 35.7665 15.9355 35.7792C15.746 35.8031 15.5621 35.7531 15.3756 35.737L15.3752 35.7365C15.1436 35.7074 14.9167 35.6531 14.6886 35.6061C14.6327 35.6057 14.576 35.6052 14.5193 35.6044Z" fill="#F7A41B"/>
<path d="M30.2716 39.2991C30.2277 39.2978 30.1835 39.2965 30.1396 39.2952C30.2178 39.2204 30.3132 39.2652 30.4013 39.2557C30.3691 39.3043 30.3193 39.2974 30.2716 39.2991Z" fill="#F7A41B"/>
<path d="M31.0003 39.1248C30.9994 39.1383 30.999 39.1522 30.9986 39.1657C30.9711 39.1665 30.9436 39.1679 30.9161 39.1687C30.8723 39.1679 30.8284 39.1665 30.7842 39.1657C30.8456 39.0957 30.9273 39.1326 31.0003 39.1248Z" fill="#F7A41B"/>
<path d="M34.3473 35.5218C34.2425 35.6161 34.1213 35.6635 33.9808 35.6492C33.7526 35.6257 33.5464 35.7687 33.3174 35.7361C33.433 35.6522 33.5907 35.6987 33.7045 35.6096C33.9279 35.647 34.1299 35.5274 34.3473 35.5218Z" fill="#F7A41B"/>
<path d="M36.5353 34.9987C36.2676 35.1461 35.9758 35.1965 35.6768 35.2157C35.9556 35.1135 36.2414 35.0396 36.5353 34.9987Z" fill="#F7A41B"/>
<path d="M37.0937 34.8252C36.9614 34.9622 36.7925 34.9635 36.6211 34.9548C36.7788 34.9113 36.936 34.8683 37.0937 34.8252Z" fill="#F7A41B"/>
<path d="M35.6773 35.2157C35.5582 35.2892 35.4268 35.3066 35.291 35.3022C35.41 35.2296 35.5415 35.2126 35.6773 35.2157Z" fill="#F7A41B"/>
<path d="M34.9477 35.3904C34.8278 35.4617 34.6968 35.4804 34.5605 35.4757C34.6804 35.4039 34.811 35.3848 34.9477 35.3904Z" fill="#F7A41B"/>
<path d="M33.3156 35.737C33.2554 35.8091 33.1738 35.77 33.1016 35.7796C33.1622 35.7096 33.2429 35.7457 33.3156 35.737Z" fill="#F7A41B"/>
<path d="M47.7802 31.4818C47.6617 31.5748 47.5955 31.577 47.6058 31.3939C47.611 31.2978 47.6393 31.1909 47.5448 31.1104C47.5177 31.0874 47.525 31.0139 47.547 31.0157C47.8026 31.0335 47.626 30.7687 47.7811 30.6909C47.7811 30.9631 47.7811 31.2222 47.7811 31.4818C47.7811 31.4813 47.7802 31.4818 47.7802 31.4818Z" fill="#F7A41B"/>
<path d="M40.956 31.1339C40.7038 31.2144 40.4439 31.2244 40.1826 31.22C40.4301 31.0987 40.6961 31.1418 40.956 31.1339Z" fill="#F7A41B"/>
<path d="M39.8408 30.4391C39.9259 30.3596 40.0226 30.3083 40.1416 30.3091C40.0716 30.4235 39.9521 30.4218 39.8408 30.4391Z" fill="#E9A634"/>
<path d="M40.2256 30.2648C40.2595 30.1874 40.3244 30.1739 40.3983 30.1791C40.3536 30.2344 40.2943 30.2591 40.2256 30.2648Z" fill="#E9A634"/>
<path d="M15.9766 38.95C16.1398 38.947 16.2997 38.9618 16.4488 39.0365C16.2859 39.0391 16.1261 39.0248 15.9766 38.95Z" fill="#F7A41B"/>
<path d="M15.2051 38.7326C15.3005 38.7787 15.4169 38.7487 15.5054 38.8196C15.4014 38.8039 15.2751 38.8683 15.2051 38.7326Z" fill="#F7A41B"/>
<path d="M15.5049 38.8196C15.6136 38.8174 15.718 38.8317 15.8048 38.907C15.6961 38.9087 15.5925 38.8926 15.5049 38.8196Z" fill="#F7A41B"/>
<path d="M38.2095 36.823C38.0437 36.9487 37.8404 36.9748 37.6514 37.0395C37.7399 36.7096 38.0067 36.8509 38.2095 36.823Z" fill="#F7A41B"/>
<path d="M14.6895 35.6061C14.9258 35.6087 15.1544 35.6544 15.3761 35.7365C15.1363 35.7496 14.9069 35.7092 14.6895 35.6061Z" fill="#F7A41B"/>
<path d="M10.612 37.2565C10.4603 37.2422 10.306 37.237 10.1836 37.1252C10.3387 37.1274 10.4801 37.1752 10.612 37.2565Z" fill="#F7A41B"/>
<path d="M43.5285 33.8239C43.5005 33.8387 43.4722 33.8539 43.4442 33.8687C43.4361 33.7652 43.4863 33.6974 43.5736 33.6522C43.5585 33.7092 43.5435 33.7665 43.5285 33.8239Z" fill="#F7A41B"/>
</svg>
